<svg width="32" height="32" fill="none" xmlns="http://www.w3.org/2000/svg"><g stroke="currentColor" stroke-linecap="round" stroke-linejoin="round" clip-path="url(#a)"><path d="M8.114 1.143H2.4c-.631 0-1.143.512-1.143 1.143v27.428c0 .632.512 1.143 1.143 1.143h5.714c.631 0 1.143-.511 1.143-1.143V2.286c0-.631-.512-1.143-1.143-1.143z"/><path d="M16.114 5.714H10.4c-.631 0-1.143.512-1.143 1.143v22.857c0 .632.512 1.143 1.143 1.143h5.714c.631 0 1.143-.511 1.143-1.143V6.857c0-.631-.512-1.143-1.143-1.143zM23.764 5.089l-4.435 1.11a1.143 1.143 0 0 0-.831 1.385l5.549 22.174c.153.612.774.984 1.386.831l4.435-1.11c.612-.153.984-.774.83-1.386L25.15 5.92a1.143 1.143 0 0 0-1.386-.831zM1.257 22.857h8m0-2.286h8m5.714 4.572 6.583-1.646"/></g><defs><clipPath id="a"><path fill="currentColor" d="M0 0h32v32H0z"/></clipPath></defs></svg>
