<svg xmlns="http://www.w3.org/2000/svg" width="166" height="626" fill="none"><path d="M-4.286-9.136a1.86 1.86 0 0 1-1.857 1.864A1.86 1.86 0 0 1-8-9.136 1.86 1.86 0 0 1-6.143-11a1.86 1.86 0 0 1 1.857 1.864zM10.571-9.136a1.86 1.86 0 0 1-1.857 1.864 1.86 1.86 0 0 1-1.857-1.864A1.86 1.86 0 0 1 8.714-11a1.86 1.86 0 0 1 1.857 1.864zM25.429-9.136a1.86 1.86 0 0 1-1.858 1.864 1.86 1.86 0 0 1-1.857-1.864A1.86 1.86 0 0 1 23.571-11a1.86 1.86 0 0 1 1.858 1.864zM40.286-9.136a1.86 1.86 0 0 1-1.857 1.864 1.86 1.86 0 0 1-1.858-1.864A1.86 1.86 0 0 1 38.43-11a1.86 1.86 0 0 1 1.857 1.864zM55.143-9.136a1.86 1.86 0 0 1-1.857 1.864 1.86 1.86 0 0 1-1.857-1.864A1.86 1.86 0 0 1 53.286-11a1.86 1.86 0 0 1 1.857 1.864zM70-9.136a1.86 1.86 0 0 1-1.857 1.864 1.86 1.86 0 0 1-1.857-1.864A1.86 1.86 0 0 1 68.143-11 1.86 1.86 0 0 1 70-9.136zM84.857-9.136A1.86 1.86 0 0 1 83-7.272a1.86 1.86 0 0 1-1.857-1.864A1.86 1.86 0 0 1 83-11a1.86 1.86 0 0 1 1.857 1.864zM99.714-9.136a1.86 1.86 0 0 1-1.857 1.864A1.86 1.86 0 0 1 96-9.136 1.86 1.86 0 0 1 97.857-11a1.86 1.86 0 0 1 1.857 1.864zM114.571-9.136a1.86 1.86 0 0 1-1.857 1.864 1.861 1.861 0 0 1-1.857-1.864c0-1.03.832-1.864 1.857-1.864a1.86 1.86 0 0 1 1.857 1.864zM129.429-9.136c0 1.03-.832 1.864-1.858 1.864a1.861 1.861 0 0 1-1.857-1.864c0-1.03.832-1.864 1.857-1.864 1.026 0 1.858.835 1.858 1.864zM144.286-9.136c0 1.03-.832 1.864-1.857 1.864a1.861 1.861 0 0 1-1.858-1.864c0-1.03.832-1.864 1.858-1.864 1.025 0 1.857.835 1.857 1.864zM159.143-9.136c0 1.03-.832 1.864-1.857 1.864a1.86 1.86 0 0 1-1.857-1.864A1.86 1.86 0 0 1 157.286-11c1.025 0 1.857.835 1.857 1.864zM174-9.136a1.86 1.86 0 0 1-1.857 1.864 1.86 1.86 0 0 1-1.857-1.864A1.86 1.86 0 0 1 172.143-11 1.86 1.86 0 0 1 174-9.136zM-4.286 5.777a1.86 1.86 0 0 1-1.857 1.865A1.86 1.86 0 0 1-8 5.777a1.86 1.86 0 0 1 1.857-1.864 1.86 1.86 0 0 1 1.857 1.864zM10.571 5.777a1.86 1.86 0 0 1-1.857 1.865 1.86 1.86 0 0 1-1.857-1.865 1.86 1.86 0 0 1 1.857-1.864 1.86 1.86 0 0 1 1.857 1.864zM25.429 5.777a1.86 1.86 0 0 1-1.858 1.865 1.86 1.86 0 0 1-1.857-1.865 1.86 1.86 0 0 1 1.857-1.864 1.86 1.86 0 0 1 1.858 1.864zM40.286 5.777a1.86 1.86 0 0 1-1.857 1.865 1.86 1.86 0 0 1-1.858-1.865 1.86 1.86 0 0 1 1.858-1.864 1.86 1.86 0 0 1 1.857 1.864zM55.143 5.777a1.86 1.86 0 0 1-1.857 1.865 1.86 1.86 0 0 1-1.857-1.865 1.86 1.86 0 0 1 1.857-1.864 1.86 1.86 0 0 1 1.857 1.864zM70 5.777a1.86 1.86 0 0 1-1.857 1.865 1.86 1.86 0 0 1-1.857-1.865 1.86 1.86 0 0 1 1.857-1.864A1.86 1.86 0 0 1 70 5.777zM84.857 5.777A1.86 1.86 0 0 1 83 7.642a1.86 1.86 0 0 1-1.857-1.865A1.86 1.86 0 0 1 83 3.913a1.86 1.86 0 0 1 1.857 1.864zM99.714 5.777a1.86 1.86 0 0 1-1.857 1.865A1.86 1.86 0 0 1 96 5.777a1.86 1.86 0 0 1 1.857-1.864 1.86 1.86 0 0 1 1.857 1.864zM114.571 5.777a1.86 1.86 0 0 1-1.857 1.865 1.861 1.861 0 0 1-1.857-1.865c0-1.03.832-1.864 1.857-1.864a1.86 1.86 0 0 1 1.857 1.864zM129.429 5.777c0 1.03-.832 1.865-1.858 1.865a1.861 1.861 0 0 1-1.857-1.865c0-1.03.832-1.864 1.857-1.864 1.026 0 1.858.835 1.858 1.864zM144.286 5.777c0 1.03-.832 1.865-1.857 1.865a1.861 1.861 0 0 1-1.858-1.865c0-1.03.832-1.864 1.858-1.864 1.025 0 1.857.835 1.857 1.864zM159.143 5.777c0 1.03-.832 1.865-1.857 1.865a1.86 1.86 0 0 1-1.857-1.865 1.86 1.86 0 0 1 1.857-1.864c1.025 0 1.857.835 1.857 1.864zM174 5.777a1.86 1.86 0 0 1-1.857 1.865 1.86 1.86 0 0 1-1.857-1.865 1.86 1.86 0 0 1 1.857-1.864A1.86 1.86 0 0 1 174 5.777zM-4.286 20.69a1.86 1.86 0 0 1-1.857 1.865A1.86 1.86 0 0 1-8 20.69a1.86 1.86 0 0 1 1.857-1.864 1.86 1.86 0 0 1 1.857 1.864zM10.571 20.69a1.86 1.86 0 0 1-1.857 1.865 1.86 1.86 0 0 1-1.857-1.864 1.86 1.86 0 0 1 1.857-1.864 1.86 1.86 0 0 1 1.857 1.864zM25.429 20.69a1.86 1.86 0 0 1-1.858 1.865 1.86 1.86 0 0 1-1.857-1.864 1.86 1.86 0 0 1 1.857-1.864 1.86 1.86 0 0 1 1.858 1.864zM40.286 20.69a1.86 1.86 0 0 1-1.857 1.865 1.86 1.86 0 0 1-1.858-1.864 1.86 1.86 0 0 1 1.858-1.864 1.86 1.86 0 0 1 1.857 1.864zM55.143 20.69a1.86 1.86 0 0 1-1.857 1.865 1.86 1.86 0 0 1-1.857-1.864 1.86 1.86 0 0 1 1.857-1.864 1.86 1.86 0 0 1 1.857 1.864zM70 20.69a1.86 1.86 0 0 1-1.857 1.865 1.86 1.86 0 0 1-1.857-1.864 1.86 1.86 0 0 1 1.857-1.864A1.86 1.86 0 0 1 70 20.69zM84.857 20.69A1.86 1.86 0 0 1 83 22.556a1.86 1.86 0 0 1-1.857-1.864A1.86 1.86 0 0 1 83 18.827a1.86 1.86 0 0 1 1.857 1.864zM99.714 20.69a1.86 1.86 0 0 1-1.857 1.865A1.86 1.86 0 0 1 96 20.69a1.86 1.86 0 0 1 1.857-1.864 1.86 1.86 0 0 1 1.857 1.864zM114.571 20.69a1.86 1.86 0 0 1-1.857 1.865 1.86 1.86 0 0 1-1.857-1.864c0-1.03.832-1.864 1.857-1.864a1.86 1.86 0 0 1 1.857 1.864zM129.429 20.69c0 1.03-.832 1.865-1.858 1.865a1.86 1.86 0 0 1-1.857-1.864c0-1.03.832-1.864 1.857-1.864 1.026 0 1.858.834 1.858 1.864zM144.286 20.69a1.86 1.86 0 0 1-1.857 1.865 1.861 1.861 0 0 1-1.858-1.864c0-1.03.832-1.864 1.858-1.864 1.025 0 1.857.834 1.857 1.864zM159.143 20.69a1.86 1.86 0 0 1-1.857 1.865 1.86 1.86 0 0 1-1.857-1.864 1.86 1.86 0 0 1 1.857-1.864c1.025 0 1.857.834 1.857 1.864zM174 20.69a1.86 1.86 0 0 1-1.857 1.865 1.86 1.86 0 0 1-1.857-1.864 1.86 1.86 0 0 1 1.857-1.864A1.86 1.86 0 0 1 174 20.69zM-4.286 35.604a1.86 1.86 0 0 1-1.857 1.864A1.86 1.86 0 0 1-8 35.604a1.86 1.86 0 0 1 1.857-1.864 1.86 1.86 0 0 1 1.857 1.864zM10.571 35.604a1.86 1.86 0 0 1-1.857 1.864 1.86 1.86 0 0 1-1.857-1.864 1.86 1.86 0 0 1 1.857-1.864 1.86 1.86 0 0 1 1.857 1.864zM25.429 35.604a1.86 1.86 0 0 1-1.858 1.864 1.86 1.86 0 0 1-1.857-1.864 1.86 1.86 0 0 1 1.857-1.864 1.86 1.86 0 0 1 1.858 1.864zM40.286 35.604a1.86 1.86 0 0 1-1.857 1.864 1.86 1.86 0 0 1-1.858-1.864 1.86 1.86 0 0 1 1.858-1.864 1.86 1.86 0 0 1 1.857 1.864zM55.143 35.604a1.86 1.86 0 0 1-1.857 1.864 1.86 1.86 0 0 1-1.857-1.864 1.86 1.86 0 0 1 1.857-1.864 1.86 1.86 0 0 1 1.857 1.864zM70 35.604a1.86 1.86 0 0 1-1.857 1.864 1.86 1.86 0 0 1-1.857-1.864 1.86 1.86 0 0 1 1.857-1.864A1.86 1.86 0 0 1 70 35.604zM84.857 35.604A1.86 1.86 0 0 1 83 37.468a1.86 1.86 0 0 1-1.857-1.864A1.86 1.86 0 0 1 83 33.74a1.86 1.86 0 0 1 1.857 1.864zM99.714 35.604a1.86 1.86 0 0 1-1.857 1.864A1.86 1.86 0 0 1 96 35.604a1.86 1.86 0 0 1 1.857-1.864 1.86 1.86 0 0 1 1.857 1.864zM114.571 35.604a1.86 1.86 0 0 1-1.857 1.864 1.861 1.861 0 0 1-1.857-1.864 1.86 1.86 0 0 1 1.857-1.864 1.86 1.86 0 0 1 1.857 1.864zM129.429 35.604c0 1.03-.832 1.864-1.858 1.864a1.861 1.861 0 0 1-1.857-1.864 1.86 1.86 0 0 1 1.857-1.864c1.026 0 1.858.834 1.858 1.864zM144.286 35.604c0 1.03-.832 1.864-1.857 1.864a1.861 1.861 0 0 1-1.858-1.864c0-1.03.832-1.864 1.858-1.864a1.86 1.86 0 0 1 1.857 1.864zM159.143 35.604c0 1.03-.832 1.864-1.857 1.864a1.86 1.86 0 0 1-1.857-1.864 1.86 1.86 0 0 1 1.857-1.864 1.86 1.86 0 0 1 1.857 1.864zM174 35.604a1.86 1.86 0 0 1-1.857 1.864 1.86 1.86 0 0 1-1.857-1.864 1.86 1.86 0 0 1 1.857-1.864A1.86 1.86 0 0 1 174 35.604zM-4.286 50.517a1.86 1.86 0 0 1-1.857 1.864A1.86 1.86 0 0 1-8 50.518a1.86 1.86 0 0 1 1.857-1.864 1.86 1.86 0 0 1 1.857 1.864zM10.571 50.517a1.86 1.86 0 0 1-1.857 1.864 1.86 1.86 0 0 1-1.857-1.864 1.86 1.86 0 0 1 1.857-1.864 1.86 1.86 0 0 1 1.857 1.864zM25.429 50.517a1.86 1.86 0 0 1-1.858 1.864 1.86 1.86 0 0 1-1.857-1.864 1.86 1.86 0 0 1 1.857-1.864 1.86 1.86 0 0 1 1.858 1.864zM40.286 50.517a1.86 1.86 0 0 1-1.857 1.864 1.86 1.86 0 0 1-1.858-1.864 1.86 1.86 0 0 1 1.858-1.864 1.86 1.86 0 0 1 1.857 1.864zM55.143 50.517a1.86 1.86 0 0 1-1.857 1.864 1.86 1.86 0 0 1-1.857-1.864 1.86 1.86 0 0 1 1.857-1.864 1.86 1.86 0 0 1 1.857 1.864zM70 50.517a1.86 1.86 0 0 1-1.857 1.864 1.86 1.86 0 0 1-1.857-1.864 1.86 1.86 0 0 1 1.857-1.864A1.86 1.86 0 0 1 70 50.517zM84.857 50.517A1.86 1.86 0 0 1 83 52.381a1.86 1.86 0 0 1-1.857-1.864A1.86 1.86 0 0 1 83 48.653a1.86 1.86 0 0 1 1.857 1.864zM99.714 50.517a1.86 1.86 0 0 1-1.857 1.864A1.86 1.86 0 0 1 96 50.518a1.86 1.86 0 0 1 1.857-1.864 1.86 1.86 0 0 1 1.857 1.864zM114.571 50.517a1.86 1.86 0 0 1-1.857 1.864 1.861 1.861 0 0 1-1.857-1.864 1.86 1.86 0 0 1 1.857-1.864 1.86 1.86 0 0 1 1.857 1.864zM129.429 50.517c0 1.03-.832 1.864-1.858 1.864a1.861 1.861 0 0 1-1.857-1.864 1.86 1.86 0 0 1 1.857-1.864c1.026 0 1.858.835 1.858 1.864zM144.286 50.517c0 1.03-.832 1.864-1.857 1.864a1.861 1.861 0 0 1-1.858-1.864c0-1.03.832-1.864 1.858-1.864a1.86 1.86 0 0 1 1.857 1.864zM159.143 50.517c0 1.03-.832 1.864-1.857 1.864a1.86 1.86 0 0 1-1.857-1.864 1.86 1.86 0 0 1 1.857-1.864 1.86 1.86 0 0 1 1.857 1.864zM174 50.517a1.86 1.86 0 0 1-1.857 1.864 1.86 1.86 0 0 1-1.857-1.864 1.86 1.86 0 0 1 1.857-1.864A1.86 1.86 0 0 1 174 50.517zM-4.286 65.43a1.86 1.86 0 0 1-1.857 1.865A1.86 1.86 0 0 1-8 65.43a1.86 1.86 0 0 1 1.857-1.864 1.86 1.86 0 0 1 1.857 1.864zM10.571 65.43a1.86 1.86 0 0 1-1.857 1.865 1.86 1.86 0 0 1-1.857-1.864 1.86 1.86 0 0 1 1.857-1.864 1.86 1.86 0 0 1 1.857 1.864zM25.429 65.43a1.86 1.86 0 0 1-1.858 1.865 1.86 1.86 0 0 1-1.857-1.864 1.86 1.86 0 0 1 1.857-1.864 1.86 1.86 0 0 1 1.858 1.864zM40.286 65.43a1.86 1.86 0 0 1-1.857 1.865 1.86 1.86 0 0 1-1.858-1.864 1.86 1.86 0 0 1 1.858-1.864 1.86 1.86 0 0 1 1.857 1.864zM55.143 65.43a1.86 1.86 0 0 1-1.857 1.865 1.86 1.86 0 0 1-1.857-1.864 1.86 1.86 0 0 1 1.857-1.864 1.86 1.86 0 0 1 1.857 1.864zM70 65.43a1.86 1.86 0 0 1-1.857 1.865 1.86 1.86 0 0 1-1.857-1.864 1.86 1.86 0 0 1 1.857-1.864A1.86 1.86 0 0 1 70 65.43zM84.857 65.43A1.86 1.86 0 0 1 83 67.296a1.86 1.86 0 0 1-1.857-1.864A1.86 1.86 0 0 1 83 63.567a1.86 1.86 0 0 1 1.857 1.864zM99.714 65.43a1.86 1.86 0 0 1-1.857 1.865A1.86 1.86 0 0 1 96 65.43a1.86 1.86 0 0 1 1.857-1.864 1.86 1.86 0 0 1 1.857 1.864zM114.571 65.43a1.86 1.86 0 0 1-1.857 1.865 1.861 1.861 0 0 1-1.857-1.864 1.86 1.86 0 0 1 1.857-1.864 1.86 1.86 0 0 1 1.857 1.864zM129.429 65.43c0 1.03-.832 1.865-1.858 1.865a1.861 1.861 0 0 1-1.857-1.864 1.86 1.86 0 0 1 1.857-1.864c1.026 0 1.858.834 1.858 1.864zM144.286 65.43c0 1.03-.832 1.865-1.857 1.865a1.861 1.861 0 0 1-1.858-1.864c0-1.03.832-1.864 1.858-1.864a1.86 1.86 0 0 1 1.857 1.864zM159.143 65.43c0 1.03-.832 1.865-1.857 1.865a1.86 1.86 0 0 1-1.857-1.864 1.86 1.86 0 0 1 1.857-1.864 1.86 1.86 0 0 1 1.857 1.864zM174 65.43a1.86 1.86 0 0 1-1.857 1.865 1.86 1.86 0 0 1-1.857-1.864 1.86 1.86 0 0 1 1.857-1.864A1.86 1.86 0 0 1 174 65.43zM-4.286 80.344a1.86 1.86 0 0 1-1.857 1.864A1.86 1.86 0 0 1-8 80.344a1.86 1.86 0 0 1 1.857-1.864 1.86 1.86 0 0 1 1.857 1.864zM10.571 80.344a1.86 1.86 0 0 1-1.857 1.864 1.86 1.86 0 0 1-1.857-1.864 1.86 1.86 0 0 1 1.857-1.864 1.86 1.86 0 0 1 1.857 1.864zM25.429 80.344a1.86 1.86 0 0 1-1.858 1.864 1.86 1.86 0 0 1-1.857-1.864 1.86 1.86 0 0 1 1.857-1.864 1.86 1.86 0 0 1 1.858 1.864zM40.286 80.344a1.86 1.86 0 0 1-1.857 1.864 1.86 1.86 0 0 1-1.858-1.864 1.86 1.86 0 0 1 1.858-1.864 1.86 1.86 0 0 1 1.857 1.864zM55.143 80.344a1.86 1.86 0 0 1-1.857 1.864 1.86 1.86 0 0 1-1.857-1.864 1.86 1.86 0 0 1 1.857-1.864 1.86 1.86 0 0 1 1.857 1.864zM70 80.344a1.86 1.86 0 0 1-1.857 1.864 1.86 1.86 0 0 1-1.857-1.864 1.86 1.86 0 0 1 1.857-1.864A1.86 1.86 0 0 1 70 80.344zM84.857 80.344A1.86 1.86 0 0 1 83 82.208a1.86 1.86 0 0 1-1.857-1.864A1.86 1.86 0 0 1 83 78.48a1.86 1.86 0 0 1 1.857 1.864zM99.714 80.344a1.86 1.86 0 0 1-1.857 1.864A1.86 1.86 0 0 1 96 80.344a1.86 1.86 0 0 1 1.857-1.864 1.86 1.86 0 0 1 1.857 1.864zM114.571 80.344a1.86 1.86 0 0 1-1.857 1.864 1.861 1.861 0 0 1-1.857-1.864 1.86 1.86 0 0 1 1.857-1.864 1.86 1.86 0 0 1 1.857 1.864zM129.429 80.344c0 1.03-.832 1.864-1.858 1.864a1.861 1.861 0 0 1-1.857-1.864 1.86 1.86 0 0 1 1.857-1.864c1.026 0 1.858.834 1.858 1.864zM144.286 80.344c0 1.03-.832 1.864-1.857 1.864a1.861 1.861 0 0 1-1.858-1.864c0-1.03.832-1.864 1.858-1.864a1.86 1.86 0 0 1 1.857 1.864zM159.143 80.344c0 1.03-.832 1.864-1.857 1.864a1.86 1.86 0 0 1-1.857-1.864 1.86 1.86 0 0 1 1.857-1.864 1.86 1.86 0 0 1 1.857 1.864zM174 80.344a1.86 1.86 0 0 1-1.857 1.864 1.86 1.86 0 0 1-1.857-1.864 1.86 1.86 0 0 1 1.857-1.864A1.86 1.86 0 0 1 174 80.344zM-4.286 95.257a1.86 1.86 0 0 1-1.857 1.864A1.86 1.86 0 0 1-8 95.257a1.86 1.86 0 0 1 1.857-1.864 1.86 1.86 0 0 1 1.857 1.864zM10.571 95.257a1.86 1.86 0 0 1-1.857 1.864 1.86 1.86 0 0 1-1.857-1.864 1.86 1.86 0 0 1 1.857-1.864 1.86 1.86 0 0 1 1.857 1.864zM25.429 95.257a1.86 1.86 0 0 1-1.858 1.864 1.86 1.86 0 0 1-1.857-1.864 1.86 1.86 0 0 1 1.857-1.864 1.86 1.86 0 0 1 1.858 1.864zM40.286 95.257a1.86 1.86 0 0 1-1.857 1.864 1.86 1.86 0 0 1-1.858-1.864 1.86 1.86 0 0 1 1.858-1.864 1.86 1.86 0 0 1 1.857 1.864zM55.143 95.257a1.86 1.86 0 0 1-1.857 1.864 1.86 1.86 0 0 1-1.857-1.864 1.86 1.86 0 0 1 1.857-1.864 1.86 1.86 0 0 1 1.857 1.864zM70 95.257a1.86 1.86 0 0 1-1.857 1.864 1.86 1.86 0 0 1-1.857-1.864 1.86 1.86 0 0 1 1.857-1.864A1.86 1.86 0 0 1 70 95.257zM84.857 95.257A1.86 1.86 0 0 1 83 97.121a1.86 1.86 0 0 1-1.857-1.864A1.86 1.86 0 0 1 83 93.393a1.86 1.86 0 0 1 1.857 1.864zM99.714 95.257a1.86 1.86 0 0 1-1.857 1.864A1.86 1.86 0 0 1 96 95.257a1.86 1.86 0 0 1 1.857-1.864 1.86 1.86 0 0 1 1.857 1.864zM114.571 95.257a1.86 1.86 0 0 1-1.857 1.864 1.861 1.861 0 0 1-1.857-1.864 1.86 1.86 0 0 1 1.857-1.864 1.86 1.86 0 0 1 1.857 1.864zM129.429 95.257c0 1.03-.832 1.864-1.858 1.864a1.861 1.861 0 0 1-1.857-1.864 1.86 1.86 0 0 1 1.857-1.864c1.026 0 1.858.835 1.858 1.864zM144.286 95.257c0 1.03-.832 1.864-1.857 1.864a1.861 1.861 0 0 1-1.858-1.864c0-1.03.832-1.864 1.858-1.864a1.86 1.86 0 0 1 1.857 1.864zM159.143 95.257c0 1.03-.832 1.864-1.857 1.864a1.86 1.86 0 0 1-1.857-1.864 1.86 1.86 0 0 1 1.857-1.864 1.86 1.86 0 0 1 1.857 1.864zM174 95.257a1.86 1.86 0 0 1-1.857 1.864 1.86 1.86 0 0 1-1.857-1.864 1.86 1.86 0 0 1 1.857-1.864A1.86 1.86 0 0 1 174 95.257zM-4.286 110.171a1.86 1.86 0 0 1-1.857 1.864A1.86 1.86 0 0 1-8 110.171c0-1.03.831-1.865 1.857-1.865s1.857.835 1.857 1.865zM10.571 110.171a1.86 1.86 0 0 1-1.857 1.864 1.86 1.86 0 0 1-1.857-1.864c0-1.03.832-1.865 1.857-1.865 1.026 0 1.857.835 1.857 1.865zM25.429 110.171a1.86 1.86 0 0 1-1.858 1.864 1.86 1.86 0 0 1-1.857-1.864c0-1.03.832-1.865 1.857-1.865 1.026 0 1.858.835 1.858 1.865zM40.286 110.171a1.86 1.86 0 0 1-1.857 1.864 1.86 1.86 0 0 1-1.858-1.864c0-1.03.832-1.865 1.858-1.865 1.025 0 1.857.835 1.857 1.865zM55.143 110.171a1.86 1.86 0 0 1-1.857 1.864 1.86 1.86 0 0 1-1.857-1.864c0-1.03.831-1.865 1.857-1.865 1.025 0 1.857.835 1.857 1.865zM70 110.171a1.86 1.86 0 0 1-1.857 1.864 1.86 1.86 0 0 1-1.857-1.864c0-1.03.831-1.865 1.857-1.865 1.025 0 1.857.835 1.857 1.865zM84.857 110.171A1.86 1.86 0 0 1 83 112.035a1.86 1.86 0 0 1-1.857-1.864c0-1.03.831-1.865 1.857-1.865s1.857.835 1.857 1.865zM99.714 110.171a1.86 1.86 0 0 1-1.857 1.864A1.86 1.86 0 0 1 96 110.171c0-1.03.832-1.865 1.857-1.865 1.026 0 1.857.835 1.857 1.865zM114.571 110.171a1.86 1.86 0 0 1-1.857 1.864 1.861 1.861 0 0 1-1.857-1.864c0-1.03.832-1.865 1.857-1.865a1.86 1.86 0 0 1 1.857 1.865zM129.429 110.171a1.861 1.861 0 0 1-1.858 1.864 1.861 1.861 0 0 1-1.857-1.864c0-1.03.832-1.865 1.857-1.865 1.026 0 1.858.835 1.858 1.865zM144.286 110.171a1.861 1.861 0 0 1-1.857 1.864 1.861 1.861 0 0 1-1.858-1.864c0-1.03.832-1.865 1.858-1.865 1.025 0 1.857.835 1.857 1.865zM159.143 110.171a1.861 1.861 0 0 1-1.857 1.864 1.86 1.86 0 0 1-1.857-1.864 1.86 1.86 0 0 1 1.857-1.865c1.025 0 1.857.835 1.857 1.865zM174 110.171a1.86 1.86 0 0 1-1.857 1.864 1.86 1.86 0 0 1-1.857-1.864 1.86 1.86 0 0 1 1.857-1.865 1.86 1.86 0 0 1 1.857 1.865zM-4.286 125.084a1.86 1.86 0 0 1-1.857 1.864A1.86 1.86 0 0 1-8 125.084a1.86 1.86 0 0 1 1.857-1.864 1.86 1.86 0 0 1 1.857 1.864zM10.571 125.084a1.86 1.86 0 0 1-1.857 1.864 1.86 1.86 0 0 1-1.857-1.864 1.86 1.86 0 0 1 1.857-1.864 1.86 1.86 0 0 1 1.857 1.864zM25.429 125.084a1.86 1.86 0 0 1-1.858 1.864 1.86 1.86 0 0 1-1.857-1.864 1.86 1.86 0 0 1 1.857-1.864 1.86 1.86 0 0 1 1.858 1.864zM40.286 125.084a1.86 1.86 0 0 1-1.857 1.864 1.86 1.86 0 0 1-1.858-1.864 1.86 1.86 0 0 1 1.858-1.864 1.86 1.86 0 0 1 1.857 1.864zM55.143 125.084a1.86 1.86 0 0 1-1.857 1.864 1.86 1.86 0 0 1-1.857-1.864 1.86 1.86 0 0 1 1.857-1.864 1.86 1.86 0 0 1 1.857 1.864zM70 125.084a1.86 1.86 0 0 1-1.857 1.864 1.86 1.86 0 0 1-1.857-1.864 1.86 1.86 0 0 1 1.857-1.864A1.86 1.86 0 0 1 70 125.084zM84.857 125.084A1.86 1.86 0 0 1 83 126.948a1.86 1.86 0 0 1-1.857-1.864A1.86 1.86 0 0 1 83 123.22a1.86 1.86 0 0 1 1.857 1.864zM99.714 125.084a1.86 1.86 0 0 1-1.857 1.864A1.86 1.86 0 0 1 96 125.084a1.86 1.86 0 0 1 1.857-1.864 1.86 1.86 0 0 1 1.857 1.864zM114.571 125.084a1.86 1.86 0 0 1-1.857 1.864 1.861 1.861 0 0 1-1.857-1.864 1.86 1.86 0 0 1 1.857-1.864 1.86 1.86 0 0 1 1.857 1.864zM129.429 125.084a1.861 1.861 0 0 1-1.858 1.864 1.861 1.861 0 0 1-1.857-1.864 1.86 1.86 0 0 1 1.857-1.864 1.86 1.86 0 0 1 1.858 1.864zM144.286 125.084a1.861 1.861 0 0 1-1.857 1.864 1.861 1.861 0 0 1-1.858-1.864 1.86 1.86 0 0 1 1.858-1.864 1.86 1.86 0 0 1 1.857 1.864zM159.143 125.084a1.861 1.861 0 0 1-1.857 1.864 1.86 1.86 0 0 1-1.857-1.864 1.86 1.86 0 0 1 1.857-1.864 1.86 1.86 0 0 1 1.857 1.864zM174 125.084a1.86 1.86 0 0 1-1.857 1.864 1.86 1.86 0 0 1-1.857-1.864 1.86 1.86 0 0 1 1.857-1.864 1.86 1.86 0 0 1 1.857 1.864zM-4.286 139.997a1.86 1.86 0 0 1-1.857 1.864A1.86 1.86 0 0 1-8 139.997a1.86 1.86 0 0 1 1.857-1.864 1.86 1.86 0 0 1 1.857 1.864zM10.571 139.997a1.86 1.86 0 0 1-1.857 1.864 1.86 1.86 0 0 1-1.857-1.864 1.86 1.86 0 0 1 1.857-1.864 1.86 1.86 0 0 1 1.857 1.864zM25.429 139.997a1.86 1.86 0 0 1-1.858 1.864 1.86 1.86 0 0 1-1.857-1.864 1.86 1.86 0 0 1 1.857-1.864 1.86 1.86 0 0 1 1.858 1.864zM40.286 139.997a1.86 1.86 0 0 1-1.857 1.864 1.86 1.86 0 0 1-1.858-1.864 1.86 1.86 0 0 1 1.858-1.864 1.86 1.86 0 0 1 1.857 1.864zM55.143 139.997a1.86 1.86 0 0 1-1.857 1.864 1.86 1.86 0 0 1-1.857-1.864 1.86 1.86 0 0 1 1.857-1.864 1.86 1.86 0 0 1 1.857 1.864zM70 139.997a1.86 1.86 0 0 1-1.857 1.864 1.86 1.86 0 0 1-1.857-1.864 1.86 1.86 0 0 1 1.857-1.864A1.86 1.86 0 0 1 70 139.997zM84.857 139.997A1.86 1.86 0 0 1 83 141.861a1.86 1.86 0 0 1-1.857-1.864A1.86 1.86 0 0 1 83 138.133a1.86 1.86 0 0 1 1.857 1.864zM99.714 139.997a1.86 1.86 0 0 1-1.857 1.864A1.86 1.86 0 0 1 96 139.997a1.86 1.86 0 0 1 1.857-1.864 1.86 1.86 0 0 1 1.857 1.864zM114.571 139.997a1.86 1.86 0 0 1-1.857 1.864 1.86 1.86 0 0 1-1.857-1.864c0-1.029.832-1.864 1.857-1.864a1.86 1.86 0 0 1 1.857 1.864zM129.429 139.997a1.86 1.86 0 0 1-1.858 1.864 1.86 1.86 0 0 1-1.857-1.864c0-1.029.832-1.864 1.857-1.864 1.026 0 1.858.835 1.858 1.864zM144.286 139.997a1.86 1.86 0 0 1-1.857 1.864 1.86 1.86 0 0 1-1.858-1.864c0-1.029.832-1.864 1.858-1.864 1.025 0 1.857.835 1.857 1.864zM159.143 139.997a1.86 1.86 0 0 1-1.857 1.864 1.86 1.86 0 0 1-1.857-1.864 1.86 1.86 0 0 1 1.857-1.864c1.025 0 1.857.835 1.857 1.864zM174 139.997a1.86 1.86 0 0 1-1.857 1.864 1.86 1.86 0 0 1-1.857-1.864 1.86 1.86 0 0 1 1.857-1.864 1.86 1.86 0 0 1 1.857 1.864zM-4.286 154.91c0 1.03-.831 1.865-1.857 1.865A1.861 1.861 0 0 1-8 154.91a1.86 1.86 0 0 1 1.857-1.864 1.86 1.86 0 0 1 1.857 1.864zM10.571 154.91c0 1.03-.831 1.865-1.857 1.865a1.861 1.861 0 0 1-1.857-1.865 1.86 1.86 0 0 1 1.857-1.864 1.86 1.86 0 0 1 1.857 1.864zM25.429 154.91c0 1.03-.832 1.865-1.858 1.865a1.861 1.861 0 0 1-1.857-1.865 1.86 1.86 0 0 1 1.857-1.864 1.86 1.86 0 0 1 1.858 1.864zM40.286 154.91c0 1.03-.832 1.865-1.857 1.865a1.861 1.861 0 0 1-1.858-1.865 1.86 1.86 0 0 1 1.858-1.864 1.86 1.86 0 0 1 1.857 1.864zM55.143 154.91c0 1.03-.832 1.865-1.857 1.865a1.861 1.861 0 0 1-1.857-1.865 1.86 1.86 0 0 1 1.857-1.864 1.86 1.86 0 0 1 1.857 1.864zM70 154.91c0 1.03-.832 1.865-1.857 1.865a1.861 1.861 0 0 1-1.857-1.865 1.86 1.86 0 0 1 1.857-1.864A1.86 1.86 0 0 1 70 154.91zM84.857 154.91c0 1.03-.831 1.865-1.857 1.865a1.861 1.861 0 0 1-1.857-1.865A1.86 1.86 0 0 1 83 153.046a1.86 1.86 0 0 1 1.857 1.864zM99.714 154.91c0 1.03-.831 1.865-1.857 1.865A1.861 1.861 0 0 1 96 154.91a1.86 1.86 0 0 1 1.857-1.864 1.86 1.86 0 0 1 1.857 1.864zM114.571 154.91a1.86 1.86 0 0 1-1.857 1.865 1.861 1.861 0 0 1-1.857-1.865c0-1.029.832-1.864 1.857-1.864a1.86 1.86 0 0 1 1.857 1.864zM129.429 154.91c0 1.03-.832 1.865-1.858 1.865a1.861 1.861 0 0 1-1.857-1.865c0-1.029.832-1.864 1.857-1.864 1.026 0 1.858.835 1.858 1.864zM144.286 154.91c0 1.03-.832 1.865-1.857 1.865a1.862 1.862 0 0 1-1.858-1.865c0-1.029.832-1.864 1.858-1.864 1.025 0 1.857.835 1.857 1.864zM159.143 154.91c0 1.03-.832 1.865-1.857 1.865a1.86 1.86 0 0 1-1.857-1.865 1.86 1.86 0 0 1 1.857-1.864c1.025 0 1.857.835 1.857 1.864zM174 154.91a1.86 1.86 0 0 1-1.857 1.865 1.86 1.86 0 0 1-1.857-1.865 1.86 1.86 0 0 1 1.857-1.864A1.86 1.86 0 0 1 174 154.91zM-4.286 169.824a1.86 1.86 0 0 1-1.857 1.864A1.86 1.86 0 0 1-8 169.824a1.86 1.86 0 0 1 1.857-1.864 1.86 1.86 0 0 1 1.857 1.864zM10.571 169.824a1.86 1.86 0 0 1-1.857 1.864 1.86 1.86 0 0 1-1.857-1.864 1.86 1.86 0 0 1 1.857-1.864 1.86 1.86 0 0 1 1.857 1.864zM25.429 169.824a1.86 1.86 0 0 1-1.858 1.864 1.86 1.86 0 0 1-1.857-1.864 1.86 1.86 0 0 1 1.857-1.864 1.86 1.86 0 0 1 1.858 1.864zM40.286 169.824a1.86 1.86 0 0 1-1.857 1.864 1.86 1.86 0 0 1-1.858-1.864 1.86 1.86 0 0 1 1.858-1.864 1.86 1.86 0 0 1 1.857 1.864zM55.143 169.824a1.86 1.86 0 0 1-1.857 1.864 1.86 1.86 0 0 1-1.857-1.864 1.86 1.86 0 0 1 1.857-1.864 1.86 1.86 0 0 1 1.857 1.864zM70 169.824a1.86 1.86 0 0 1-1.857 1.864 1.86 1.86 0 0 1-1.857-1.864 1.86 1.86 0 0 1 1.857-1.864A1.86 1.86 0 0 1 70 169.824zM84.857 169.824A1.86 1.86 0 0 1 83 171.688a1.86 1.86 0 0 1-1.857-1.864A1.86 1.86 0 0 1 83 167.96a1.86 1.86 0 0 1 1.857 1.864zM99.714 169.824a1.86 1.86 0 0 1-1.857 1.864A1.86 1.86 0 0 1 96 169.824a1.86 1.86 0 0 1 1.857-1.864 1.86 1.86 0 0 1 1.857 1.864zM114.571 169.824a1.86 1.86 0 0 1-1.857 1.864 1.861 1.861 0 0 1-1.857-1.864 1.86 1.86 0 0 1 1.857-1.864 1.86 1.86 0 0 1 1.857 1.864zM129.429 169.824a1.861 1.861 0 0 1-1.858 1.864 1.861 1.861 0 0 1-1.857-1.864 1.86 1.86 0 0 1 1.857-1.864 1.86 1.86 0 0 1 1.858 1.864zM144.286 169.824a1.861 1.861 0 0 1-1.857 1.864 1.861 1.861 0 0 1-1.858-1.864 1.86 1.86 0 0 1 1.858-1.864 1.86 1.86 0 0 1 1.857 1.864zM159.143 169.824a1.861 1.861 0 0 1-1.857 1.864 1.86 1.86 0 0 1-1.857-1.864 1.86 1.86 0 0 1 1.857-1.864 1.86 1.86 0 0 1 1.857 1.864zM174 169.824a1.86 1.86 0 0 1-1.857 1.864 1.86 1.86 0 0 1-1.857-1.864 1.86 1.86 0 0 1 1.857-1.864 1.86 1.86 0 0 1 1.857 1.864zM-4.286 184.737a1.86 1.86 0 0 1-1.857 1.864A1.86 1.86 0 0 1-8 184.737a1.86 1.86 0 0 1 1.857-1.864 1.86 1.86 0 0 1 1.857 1.864zM10.571 184.737a1.86 1.86 0 0 1-1.857 1.864 1.86 1.86 0 0 1-1.857-1.864 1.86 1.86 0 0 1 1.857-1.864 1.86 1.86 0 0 1 1.857 1.864zM25.429 184.737a1.86 1.86 0 0 1-1.858 1.864 1.86 1.86 0 0 1-1.857-1.864 1.86 1.86 0 0 1 1.857-1.864 1.86 1.86 0 0 1 1.858 1.864zM40.286 184.737a1.86 1.86 0 0 1-1.857 1.864 1.86 1.86 0 0 1-1.858-1.864 1.86 1.86 0 0 1 1.858-1.864 1.86 1.86 0 0 1 1.857 1.864zM55.143 184.737a1.86 1.86 0 0 1-1.857 1.864 1.86 1.86 0 0 1-1.857-1.864 1.86 1.86 0 0 1 1.857-1.864 1.86 1.86 0 0 1 1.857 1.864zM70 184.737a1.86 1.86 0 0 1-1.857 1.864 1.86 1.86 0 0 1-1.857-1.864 1.86 1.86 0 0 1 1.857-1.864A1.86 1.86 0 0 1 70 184.737zM84.857 184.737A1.86 1.86 0 0 1 83 186.601a1.86 1.86 0 0 1-1.857-1.864A1.86 1.86 0 0 1 83 182.873a1.86 1.86 0 0 1 1.857 1.864zM99.714 184.737a1.86 1.86 0 0 1-1.857 1.864A1.86 1.86 0 0 1 96 184.737a1.86 1.86 0 0 1 1.857-1.864 1.86 1.86 0 0 1 1.857 1.864zM114.571 184.737a1.86 1.86 0 0 1-1.857 1.864 1.86 1.86 0 0 1-1.857-1.864 1.86 1.86 0 0 1 1.857-1.864 1.86 1.86 0 0 1 1.857 1.864zM129.429 184.737a1.86 1.86 0 0 1-1.858 1.864 1.86 1.86 0 0 1-1.857-1.864 1.86 1.86 0 0 1 1.857-1.864 1.86 1.86 0 0 1 1.858 1.864zM144.286 184.737a1.86 1.86 0 0 1-1.857 1.864 1.86 1.86 0 0 1-1.858-1.864 1.86 1.86 0 0 1 1.858-1.864 1.86 1.86 0 0 1 1.857 1.864zM159.143 184.737a1.86 1.86 0 0 1-1.857 1.864 1.86 1.86 0 0 1-1.857-1.864 1.86 1.86 0 0 1 1.857-1.864 1.86 1.86 0 0 1 1.857 1.864zM174 184.737a1.86 1.86 0 0 1-1.857 1.864 1.86 1.86 0 0 1-1.857-1.864 1.86 1.86 0 0 1 1.857-1.864 1.86 1.86 0 0 1 1.857 1.864zM-4.286 199.65a1.86 1.86 0 0 1-1.857 1.864A1.86 1.86 0 0 1-8 199.65a1.86 1.86 0 0 1 1.857-1.864 1.86 1.86 0 0 1 1.857 1.864zM10.571 199.65a1.86 1.86 0 0 1-1.857 1.864 1.86 1.86 0 0 1-1.857-1.864 1.86 1.86 0 0 1 1.857-1.864 1.86 1.86 0 0 1 1.857 1.864zM25.429 199.65a1.86 1.86 0 0 1-1.858 1.864 1.86 1.86 0 0 1-1.857-1.864 1.86 1.86 0 0 1 1.857-1.864 1.86 1.86 0 0 1 1.858 1.864zM40.286 199.65a1.86 1.86 0 0 1-1.857 1.864 1.86 1.86 0 0 1-1.858-1.864 1.86 1.86 0 0 1 1.858-1.864 1.86 1.86 0 0 1 1.857 1.864zM55.143 199.65a1.86 1.86 0 0 1-1.857 1.864 1.86 1.86 0 0 1-1.857-1.864 1.86 1.86 0 0 1 1.857-1.864 1.86 1.86 0 0 1 1.857 1.864zM70 199.65a1.86 1.86 0 0 1-1.857 1.864 1.86 1.86 0 0 1-1.857-1.864 1.86 1.86 0 0 1 1.857-1.864A1.86 1.86 0 0 1 70 199.65zM84.857 199.65A1.86 1.86 0 0 1 83 201.514a1.86 1.86 0 0 1-1.857-1.864A1.86 1.86 0 0 1 83 197.786a1.86 1.86 0 0 1 1.857 1.864zM99.714 199.65a1.86 1.86 0 0 1-1.857 1.864A1.86 1.86 0 0 1 96 199.65a1.86 1.86 0 0 1 1.857-1.864 1.86 1.86 0 0 1 1.857 1.864zM114.571 199.65a1.86 1.86 0 0 1-1.857 1.864 1.86 1.86 0 0 1-1.857-1.864c0-1.029.832-1.864 1.857-1.864a1.86 1.86 0 0 1 1.857 1.864zM129.429 199.65a1.86 1.86 0 0 1-1.858 1.864 1.86 1.86 0 0 1-1.857-1.864c0-1.029.832-1.864 1.857-1.864 1.026 0 1.858.835 1.858 1.864zM144.286 199.65a1.86 1.86 0 0 1-1.857 1.864 1.86 1.86 0 0 1-1.858-1.864c0-1.029.832-1.864 1.858-1.864 1.025 0 1.857.835 1.857 1.864zM159.143 199.65a1.86 1.86 0 0 1-1.857 1.864 1.86 1.86 0 0 1-1.857-1.864 1.86 1.86 0 0 1 1.857-1.864c1.025 0 1.857.835 1.857 1.864zM174 199.65a1.86 1.86 0 0 1-1.857 1.864 1.86 1.86 0 0 1-1.857-1.864 1.86 1.86 0 0 1 1.857-1.864A1.86 1.86 0 0 1 174 199.65zM-4.286 214.564a1.86 1.86 0 0 1-1.857 1.864A1.86 1.86 0 0 1-8 214.564c0-1.03.831-1.865 1.857-1.865s1.857.835 1.857 1.865zM10.571 214.564a1.86 1.86 0 0 1-1.857 1.864 1.86 1.86 0 0 1-1.857-1.864c0-1.03.832-1.865 1.857-1.865 1.026 0 1.857.835 1.857 1.865zM25.429 214.564a1.86 1.86 0 0 1-1.858 1.864 1.86 1.86 0 0 1-1.857-1.864c0-1.03.832-1.865 1.857-1.865 1.026 0 1.858.835 1.858 1.865zM40.286 214.564a1.86 1.86 0 0 1-1.857 1.864 1.86 1.86 0 0 1-1.858-1.864c0-1.03.832-1.865 1.858-1.865 1.025 0 1.857.835 1.857 1.865zM55.143 214.564a1.86 1.86 0 0 1-1.857 1.864 1.86 1.86 0 0 1-1.857-1.864c0-1.03.831-1.865 1.857-1.865 1.025 0 1.857.835 1.857 1.865zM70 214.564a1.86 1.86 0 0 1-1.857 1.864 1.86 1.86 0 0 1-1.857-1.864c0-1.03.831-1.865 1.857-1.865 1.025 0 1.857.835 1.857 1.865zM84.857 214.564A1.86 1.86 0 0 1 83 216.428a1.86 1.86 0 0 1-1.857-1.864c0-1.03.831-1.865 1.857-1.865s1.857.835 1.857 1.865zM99.714 214.564a1.86 1.86 0 0 1-1.857 1.864A1.86 1.86 0 0 1 96 214.564c0-1.03.832-1.865 1.857-1.865 1.026 0 1.857.835 1.857 1.865zM114.571 214.564a1.86 1.86 0 0 1-1.857 1.864 1.861 1.861 0 0 1-1.857-1.864c0-1.03.832-1.865 1.857-1.865a1.86 1.86 0 0 1 1.857 1.865zM129.429 214.564a1.861 1.861 0 0 1-1.858 1.864 1.861 1.861 0 0 1-1.857-1.864c0-1.03.832-1.865 1.857-1.865 1.026 0 1.858.835 1.858 1.865zM144.286 214.564a1.861 1.861 0 0 1-1.857 1.864 1.861 1.861 0 0 1-1.858-1.864c0-1.03.832-1.865 1.858-1.865 1.025 0 1.857.835 1.857 1.865zM159.143 214.564a1.861 1.861 0 0 1-1.857 1.864 1.86 1.86 0 0 1-1.857-1.864 1.86 1.86 0 0 1 1.857-1.865c1.025 0 1.857.835 1.857 1.865zM174 214.564a1.86 1.86 0 0 1-1.857 1.864 1.86 1.86 0 0 1-1.857-1.864 1.86 1.86 0 0 1 1.857-1.865 1.86 1.86 0 0 1 1.857 1.865zM-4.286 229.477a1.86 1.86 0 0 1-1.857 1.864A1.86 1.86 0 0 1-8 229.477a1.86 1.86 0 0 1 1.857-1.864 1.86 1.86 0 0 1 1.857 1.864zM10.571 229.477a1.86 1.86 0 0 1-1.857 1.864 1.86 1.86 0 0 1-1.857-1.864 1.86 1.86 0 0 1 1.857-1.864 1.86 1.86 0 0 1 1.857 1.864zM25.429 229.477a1.86 1.86 0 0 1-1.858 1.864 1.86 1.86 0 0 1-1.857-1.864 1.86 1.86 0 0 1 1.857-1.864 1.86 1.86 0 0 1 1.858 1.864zM40.286 229.477a1.86 1.86 0 0 1-1.857 1.864 1.86 1.86 0 0 1-1.858-1.864 1.86 1.86 0 0 1 1.858-1.864 1.86 1.86 0 0 1 1.857 1.864zM55.143 229.477a1.86 1.86 0 0 1-1.857 1.864 1.86 1.86 0 0 1-1.857-1.864 1.86 1.86 0 0 1 1.857-1.864 1.86 1.86 0 0 1 1.857 1.864zM70 229.477a1.86 1.86 0 0 1-1.857 1.864 1.86 1.86 0 0 1-1.857-1.864 1.86 1.86 0 0 1 1.857-1.864A1.86 1.86 0 0 1 70 229.477zM84.857 229.477A1.86 1.86 0 0 1 83 231.341a1.86 1.86 0 0 1-1.857-1.864A1.86 1.86 0 0 1 83 227.613a1.86 1.86 0 0 1 1.857 1.864zM99.714 229.477a1.86 1.86 0 0 1-1.857 1.864A1.86 1.86 0 0 1 96 229.477a1.86 1.86 0 0 1 1.857-1.864 1.86 1.86 0 0 1 1.857 1.864zM114.571 229.477a1.86 1.86 0 0 1-1.857 1.864 1.861 1.861 0 0 1-1.857-1.864 1.86 1.86 0 0 1 1.857-1.864 1.86 1.86 0 0 1 1.857 1.864zM129.429 229.477a1.861 1.861 0 0 1-1.858 1.864 1.861 1.861 0 0 1-1.857-1.864 1.86 1.86 0 0 1 1.857-1.864 1.86 1.86 0 0 1 1.858 1.864zM144.286 229.477a1.861 1.861 0 0 1-1.857 1.864 1.861 1.861 0 0 1-1.858-1.864 1.86 1.86 0 0 1 1.858-1.864 1.86 1.86 0 0 1 1.857 1.864zM159.143 229.477a1.861 1.861 0 0 1-1.857 1.864 1.86 1.86 0 0 1-1.857-1.864 1.86 1.86 0 0 1 1.857-1.864 1.86 1.86 0 0 1 1.857 1.864zM174 229.477a1.86 1.86 0 0 1-1.857 1.864 1.86 1.86 0 0 1-1.857-1.864 1.86 1.86 0 0 1 1.857-1.864 1.86 1.86 0 0 1 1.857 1.864zM-4.286 244.39a1.86 1.86 0 0 1-1.857 1.864A1.86 1.86 0 0 1-8 244.39a1.86 1.86 0 0 1 1.857-1.864 1.86 1.86 0 0 1 1.857 1.864zM10.571 244.39a1.86 1.86 0 0 1-1.857 1.864 1.86 1.86 0 0 1-1.857-1.864 1.86 1.86 0 0 1 1.857-1.864 1.86 1.86 0 0 1 1.857 1.864zM25.429 244.39a1.86 1.86 0 0 1-1.858 1.864 1.86 1.86 0 0 1-1.857-1.864 1.86 1.86 0 0 1 1.857-1.864 1.86 1.86 0 0 1 1.858 1.864zM40.286 244.39a1.86 1.86 0 0 1-1.857 1.864 1.86 1.86 0 0 1-1.858-1.864 1.86 1.86 0 0 1 1.858-1.864 1.86 1.86 0 0 1 1.857 1.864zM55.143 244.39a1.86 1.86 0 0 1-1.857 1.864 1.86 1.86 0 0 1-1.857-1.864 1.86 1.86 0 0 1 1.857-1.864 1.86 1.86 0 0 1 1.857 1.864zM70 244.39a1.86 1.86 0 0 1-1.857 1.864 1.86 1.86 0 0 1-1.857-1.864 1.86 1.86 0 0 1 1.857-1.864A1.86 1.86 0 0 1 70 244.39zM84.857 244.39A1.86 1.86 0 0 1 83 246.254a1.86 1.86 0 0 1-1.857-1.864A1.86 1.86 0 0 1 83 242.526a1.86 1.86 0 0 1 1.857 1.864zM99.714 244.39a1.86 1.86 0 0 1-1.857 1.864A1.86 1.86 0 0 1 96 244.39a1.86 1.86 0 0 1 1.857-1.864 1.86 1.86 0 0 1 1.857 1.864zM114.571 244.39a1.86 1.86 0 0 1-1.857 1.864 1.86 1.86 0 0 1-1.857-1.864c0-1.029.832-1.864 1.857-1.864a1.86 1.86 0 0 1 1.857 1.864zM129.429 244.39a1.86 1.86 0 0 1-1.858 1.864 1.86 1.86 0 0 1-1.857-1.864c0-1.029.832-1.864 1.857-1.864 1.026 0 1.858.835 1.858 1.864zM144.286 244.39a1.86 1.86 0 0 1-1.857 1.864 1.86 1.86 0 0 1-1.858-1.864c0-1.029.832-1.864 1.858-1.864 1.025 0 1.857.835 1.857 1.864zM159.143 244.39a1.86 1.86 0 0 1-1.857 1.864 1.86 1.86 0 0 1-1.857-1.864 1.86 1.86 0 0 1 1.857-1.864c1.025 0 1.857.835 1.857 1.864zM174 244.39a1.86 1.86 0 0 1-1.857 1.864 1.86 1.86 0 0 1-1.857-1.864 1.86 1.86 0 0 1 1.857-1.864A1.86 1.86 0 0 1 174 244.39zM-4.286 259.303c0 1.03-.831 1.865-1.857 1.865A1.861 1.861 0 0 1-8 259.303a1.86 1.86 0 0 1 1.857-1.864 1.86 1.86 0 0 1 1.857 1.864zM10.571 259.303c0 1.03-.831 1.865-1.857 1.865a1.861 1.861 0 0 1-1.857-1.865 1.86 1.86 0 0 1 1.857-1.864 1.86 1.86 0 0 1 1.857 1.864zM25.429 259.303c0 1.03-.832 1.865-1.858 1.865a1.861 1.861 0 0 1-1.857-1.865 1.86 1.86 0 0 1 1.857-1.864 1.86 1.86 0 0 1 1.858 1.864zM40.286 259.303c0 1.03-.832 1.865-1.857 1.865a1.861 1.861 0 0 1-1.858-1.865 1.86 1.86 0 0 1 1.858-1.864 1.86 1.86 0 0 1 1.857 1.864zM55.143 259.303c0 1.03-.832 1.865-1.857 1.865a1.861 1.861 0 0 1-1.857-1.865 1.86 1.86 0 0 1 1.857-1.864 1.86 1.86 0 0 1 1.857 1.864zM70 259.303c0 1.03-.832 1.865-1.857 1.865a1.861 1.861 0 0 1-1.857-1.865 1.86 1.86 0 0 1 1.857-1.864A1.86 1.86 0 0 1 70 259.303zM84.857 259.303c0 1.03-.831 1.865-1.857 1.865a1.861 1.861 0 0 1-1.857-1.865A1.86 1.86 0 0 1 83 257.439a1.86 1.86 0 0 1 1.857 1.864zM99.714 259.303c0 1.03-.831 1.865-1.857 1.865A1.861 1.861 0 0 1 96 259.303a1.86 1.86 0 0 1 1.857-1.864 1.86 1.86 0 0 1 1.857 1.864zM114.571 259.303a1.86 1.86 0 0 1-1.857 1.865 1.861 1.861 0 0 1-1.857-1.865c0-1.029.832-1.864 1.857-1.864a1.86 1.86 0 0 1 1.857 1.864zM129.429 259.303c0 1.03-.832 1.865-1.858 1.865a1.861 1.861 0 0 1-1.857-1.865c0-1.029.832-1.864 1.857-1.864 1.026 0 1.858.835 1.858 1.864zM144.286 259.303c0 1.03-.832 1.865-1.857 1.865a1.862 1.862 0 0 1-1.858-1.865c0-1.029.832-1.864 1.858-1.864 1.025 0 1.857.835 1.857 1.864zM159.143 259.303c0 1.03-.832 1.865-1.857 1.865a1.86 1.86 0 0 1-1.857-1.865 1.86 1.86 0 0 1 1.857-1.864c1.025 0 1.857.835 1.857 1.864zM174 259.303a1.86 1.86 0 0 1-1.857 1.865 1.86 1.86 0 0 1-1.857-1.865 1.86 1.86 0 0 1 1.857-1.864 1.86 1.86 0 0 1 1.857 1.864zM-4.286 274.217a1.86 1.86 0 0 1-1.857 1.864A1.86 1.86 0 0 1-8 274.217a1.86 1.86 0 0 1 1.857-1.864 1.86 1.86 0 0 1 1.857 1.864zM10.571 274.217a1.86 1.86 0 0 1-1.857 1.864 1.86 1.86 0 0 1-1.857-1.864 1.86 1.86 0 0 1 1.857-1.864 1.86 1.86 0 0 1 1.857 1.864zM25.429 274.217a1.86 1.86 0 0 1-1.858 1.864 1.86 1.86 0 0 1-1.857-1.864 1.86 1.86 0 0 1 1.857-1.864 1.86 1.86 0 0 1 1.858 1.864zM40.286 274.217a1.86 1.86 0 0 1-1.857 1.864 1.86 1.86 0 0 1-1.858-1.864 1.86 1.86 0 0 1 1.858-1.864 1.86 1.86 0 0 1 1.857 1.864zM55.143 274.217a1.86 1.86 0 0 1-1.857 1.864 1.86 1.86 0 0 1-1.857-1.864 1.86 1.86 0 0 1 1.857-1.864 1.86 1.86 0 0 1 1.857 1.864zM70 274.217a1.86 1.86 0 0 1-1.857 1.864 1.86 1.86 0 0 1-1.857-1.864 1.86 1.86 0 0 1 1.857-1.864A1.86 1.86 0 0 1 70 274.217zM84.857 274.217A1.86 1.86 0 0 1 83 276.081a1.86 1.86 0 0 1-1.857-1.864A1.86 1.86 0 0 1 83 272.353a1.86 1.86 0 0 1 1.857 1.864zM99.714 274.217a1.86 1.86 0 0 1-1.857 1.864A1.86 1.86 0 0 1 96 274.217a1.86 1.86 0 0 1 1.857-1.864 1.86 1.86 0 0 1 1.857 1.864zM114.571 274.217a1.86 1.86 0 0 1-1.857 1.864 1.861 1.861 0 0 1-1.857-1.864 1.86 1.86 0 0 1 1.857-1.864 1.86 1.86 0 0 1 1.857 1.864zM129.429 274.217a1.861 1.861 0 0 1-1.858 1.864 1.861 1.861 0 0 1-1.857-1.864 1.86 1.86 0 0 1 1.857-1.864 1.86 1.86 0 0 1 1.858 1.864zM144.286 274.217a1.861 1.861 0 0 1-1.857 1.864 1.861 1.861 0 0 1-1.858-1.864 1.86 1.86 0 0 1 1.858-1.864 1.86 1.86 0 0 1 1.857 1.864zM159.143 274.217a1.861 1.861 0 0 1-1.857 1.864 1.86 1.86 0 0 1-1.857-1.864 1.86 1.86 0 0 1 1.857-1.864 1.86 1.86 0 0 1 1.857 1.864zM174 274.217a1.86 1.86 0 0 1-1.857 1.864 1.86 1.86 0 0 1-1.857-1.864 1.86 1.86 0 0 1 1.857-1.864 1.86 1.86 0 0 1 1.857 1.864zM-4.286 289.13a1.86 1.86 0 0 1-1.857 1.864A1.86 1.86 0 0 1-8 289.13a1.86 1.86 0 0 1 1.857-1.864 1.86 1.86 0 0 1 1.857 1.864zM10.571 289.13a1.86 1.86 0 0 1-1.857 1.864 1.86 1.86 0 0 1-1.857-1.864 1.86 1.86 0 0 1 1.857-1.864 1.86 1.86 0 0 1 1.857 1.864zM25.429 289.13a1.86 1.86 0 0 1-1.858 1.864 1.86 1.86 0 0 1-1.857-1.864 1.86 1.86 0 0 1 1.857-1.864 1.86 1.86 0 0 1 1.858 1.864zM40.286 289.13a1.86 1.86 0 0 1-1.857 1.864 1.86 1.86 0 0 1-1.858-1.864 1.86 1.86 0 0 1 1.858-1.864 1.86 1.86 0 0 1 1.857 1.864zM55.143 289.13a1.86 1.86 0 0 1-1.857 1.864 1.86 1.86 0 0 1-1.857-1.864 1.86 1.86 0 0 1 1.857-1.864 1.86 1.86 0 0 1 1.857 1.864zM70 289.13a1.86 1.86 0 0 1-1.857 1.864 1.86 1.86 0 0 1-1.857-1.864 1.86 1.86 0 0 1 1.857-1.864A1.86 1.86 0 0 1 70 289.13zM84.857 289.13A1.86 1.86 0 0 1 83 290.994a1.86 1.86 0 0 1-1.857-1.864A1.86 1.86 0 0 1 83 287.266a1.86 1.86 0 0 1 1.857 1.864zM99.714 289.13a1.86 1.86 0 0 1-1.857 1.864A1.86 1.86 0 0 1 96 289.13a1.86 1.86 0 0 1 1.857-1.864 1.86 1.86 0 0 1 1.857 1.864zM114.571 289.13a1.86 1.86 0 0 1-1.857 1.864 1.86 1.86 0 0 1-1.857-1.864 1.86 1.86 0 0 1 1.857-1.864 1.86 1.86 0 0 1 1.857 1.864zM129.429 289.13a1.86 1.86 0 0 1-1.858 1.864 1.86 1.86 0 0 1-1.857-1.864 1.86 1.86 0 0 1 1.857-1.864 1.86 1.86 0 0 1 1.858 1.864zM144.286 289.13a1.86 1.86 0 0 1-1.857 1.864 1.86 1.86 0 0 1-1.858-1.864 1.86 1.86 0 0 1 1.858-1.864 1.86 1.86 0 0 1 1.857 1.864zM159.143 289.13a1.86 1.86 0 0 1-1.857 1.864 1.86 1.86 0 0 1-1.857-1.864 1.86 1.86 0 0 1 1.857-1.864 1.86 1.86 0 0 1 1.857 1.864zM174 289.13a1.86 1.86 0 0 1-1.857 1.864 1.86 1.86 0 0 1-1.857-1.864 1.86 1.86 0 0 1 1.857-1.864A1.86 1.86 0 0 1 174 289.13zM-4.286 304.043c0 1.03-.831 1.865-1.857 1.865A1.861 1.861 0 0 1-8 304.043a1.86 1.86 0 0 1 1.857-1.864 1.86 1.86 0 0 1 1.857 1.864zM10.571 304.043c0 1.03-.831 1.865-1.857 1.865a1.861 1.861 0 0 1-1.857-1.865 1.86 1.86 0 0 1 1.857-1.864 1.86 1.86 0 0 1 1.857 1.864zM25.429 304.043c0 1.03-.832 1.865-1.858 1.865a1.861 1.861 0 0 1-1.857-1.865 1.86 1.86 0 0 1 1.857-1.864 1.86 1.86 0 0 1 1.858 1.864zM40.286 304.043c0 1.03-.832 1.865-1.857 1.865a1.861 1.861 0 0 1-1.858-1.865 1.86 1.86 0 0 1 1.858-1.864 1.86 1.86 0 0 1 1.857 1.864zM55.143 304.043c0 1.03-.832 1.865-1.857 1.865a1.861 1.861 0 0 1-1.857-1.865 1.86 1.86 0 0 1 1.857-1.864 1.86 1.86 0 0 1 1.857 1.864zM70 304.043c0 1.03-.832 1.865-1.857 1.865a1.861 1.861 0 0 1-1.857-1.865 1.86 1.86 0 0 1 1.857-1.864A1.86 1.86 0 0 1 70 304.043zM84.857 304.043c0 1.03-.831 1.865-1.857 1.865a1.861 1.861 0 0 1-1.857-1.865A1.86 1.86 0 0 1 83 302.179a1.86 1.86 0 0 1 1.857 1.864zM99.714 304.043c0 1.03-.831 1.865-1.857 1.865A1.861 1.861 0 0 1 96 304.043a1.86 1.86 0 0 1 1.857-1.864 1.86 1.86 0 0 1 1.857 1.864zM114.571 304.043a1.86 1.86 0 0 1-1.857 1.865 1.861 1.861 0 0 1-1.857-1.865c0-1.029.832-1.864 1.857-1.864a1.86 1.86 0 0 1 1.857 1.864zM129.429 304.043c0 1.03-.832 1.865-1.858 1.865a1.861 1.861 0 0 1-1.857-1.865c0-1.029.832-1.864 1.857-1.864 1.026 0 1.858.835 1.858 1.864zM144.286 304.043c0 1.03-.832 1.865-1.857 1.865a1.862 1.862 0 0 1-1.858-1.865c0-1.029.832-1.864 1.858-1.864 1.025 0 1.857.835 1.857 1.864zM159.143 304.043c0 1.03-.832 1.865-1.857 1.865a1.86 1.86 0 0 1-1.857-1.865 1.86 1.86 0 0 1 1.857-1.864c1.025 0 1.857.835 1.857 1.864zM174 304.043a1.86 1.86 0 0 1-1.857 1.865 1.86 1.86 0 0 1-1.857-1.865 1.86 1.86 0 0 1 1.857-1.864 1.86 1.86 0 0 1 1.857 1.864zM-4.286 318.957a1.86 1.86 0 0 1-1.857 1.864A1.86 1.86 0 0 1-8 318.957c0-1.03.831-1.865 1.857-1.865s1.857.835 1.857 1.865zM10.571 318.957a1.86 1.86 0 0 1-1.857 1.864 1.86 1.86 0 0 1-1.857-1.864c0-1.03.832-1.865 1.857-1.865 1.026 0 1.857.835 1.857 1.865zM25.429 318.957a1.86 1.86 0 0 1-1.858 1.864 1.86 1.86 0 0 1-1.857-1.864c0-1.03.832-1.865 1.857-1.865 1.026 0 1.858.835 1.858 1.865zM40.286 318.957a1.86 1.86 0 0 1-1.857 1.864 1.86 1.86 0 0 1-1.858-1.864c0-1.03.832-1.865 1.858-1.865 1.025 0 1.857.835 1.857 1.865zM55.143 318.957a1.86 1.86 0 0 1-1.857 1.864 1.86 1.86 0 0 1-1.857-1.864c0-1.03.831-1.865 1.857-1.865 1.025 0 1.857.835 1.857 1.865zM70 318.957a1.86 1.86 0 0 1-1.857 1.864 1.86 1.86 0 0 1-1.857-1.864c0-1.03.831-1.865 1.857-1.865 1.025 0 1.857.835 1.857 1.865zM84.857 318.957A1.86 1.86 0 0 1 83 320.821a1.86 1.86 0 0 1-1.857-1.864c0-1.03.831-1.865 1.857-1.865s1.857.835 1.857 1.865zM99.714 318.957a1.86 1.86 0 0 1-1.857 1.864A1.86 1.86 0 0 1 96 318.957c0-1.03.832-1.865 1.857-1.865 1.026 0 1.857.835 1.857 1.865zM114.571 318.957a1.86 1.86 0 0 1-1.857 1.864 1.861 1.861 0 0 1-1.857-1.864c0-1.03.832-1.865 1.857-1.865a1.86 1.86 0 0 1 1.857 1.865zM129.429 318.957a1.861 1.861 0 0 1-1.858 1.864 1.861 1.861 0 0 1-1.857-1.864c0-1.03.832-1.865 1.857-1.865 1.026 0 1.858.835 1.858 1.865zM144.286 318.957a1.861 1.861 0 0 1-1.857 1.864 1.861 1.861 0 0 1-1.858-1.864c0-1.03.832-1.865 1.858-1.865 1.025 0 1.857.835 1.857 1.865zM159.143 318.957a1.861 1.861 0 0 1-1.857 1.864 1.86 1.86 0 0 1-1.857-1.864 1.86 1.86 0 0 1 1.857-1.865c1.025 0 1.857.835 1.857 1.865zM174 318.957a1.86 1.86 0 0 1-1.857 1.864 1.86 1.86 0 0 1-1.857-1.864 1.86 1.86 0 0 1 1.857-1.865 1.86 1.86 0 0 1 1.857 1.865zM-4.286 333.87a1.86 1.86 0 0 1-1.857 1.864A1.86 1.86 0 0 1-8 333.87a1.86 1.86 0 0 1 1.857-1.864 1.86 1.86 0 0 1 1.857 1.864zM10.571 333.87a1.86 1.86 0 0 1-1.857 1.864 1.86 1.86 0 0 1-1.857-1.864 1.86 1.86 0 0 1 1.857-1.864 1.86 1.86 0 0 1 1.857 1.864zM25.429 333.87a1.86 1.86 0 0 1-1.858 1.864 1.86 1.86 0 0 1-1.857-1.864 1.86 1.86 0 0 1 1.857-1.864 1.86 1.86 0 0 1 1.858 1.864zM40.286 333.87a1.86 1.86 0 0 1-1.857 1.864 1.86 1.86 0 0 1-1.858-1.864 1.86 1.86 0 0 1 1.858-1.864 1.86 1.86 0 0 1 1.857 1.864zM55.143 333.87a1.86 1.86 0 0 1-1.857 1.864 1.86 1.86 0 0 1-1.857-1.864 1.86 1.86 0 0 1 1.857-1.864 1.86 1.86 0 0 1 1.857 1.864zM70 333.87a1.86 1.86 0 0 1-1.857 1.864 1.86 1.86 0 0 1-1.857-1.864 1.86 1.86 0 0 1 1.857-1.864A1.86 1.86 0 0 1 70 333.87zM84.857 333.87A1.86 1.86 0 0 1 83 335.734a1.86 1.86 0 0 1-1.857-1.864A1.86 1.86 0 0 1 83 332.006a1.86 1.86 0 0 1 1.857 1.864zM99.714 333.87a1.86 1.86 0 0 1-1.857 1.864A1.86 1.86 0 0 1 96 333.87a1.86 1.86 0 0 1 1.857-1.864 1.86 1.86 0 0 1 1.857 1.864zM114.571 333.87a1.86 1.86 0 0 1-1.857 1.864 1.861 1.861 0 0 1-1.857-1.864 1.86 1.86 0 0 1 1.857-1.864 1.86 1.86 0 0 1 1.857 1.864zM129.429 333.87a1.861 1.861 0 0 1-1.858 1.864 1.861 1.861 0 0 1-1.857-1.864 1.86 1.86 0 0 1 1.857-1.864 1.86 1.86 0 0 1 1.858 1.864zM144.286 333.87a1.861 1.861 0 0 1-1.857 1.864 1.861 1.861 0 0 1-1.858-1.864 1.86 1.86 0 0 1 1.858-1.864 1.86 1.86 0 0 1 1.857 1.864zM159.143 333.87a1.861 1.861 0 0 1-1.857 1.864 1.86 1.86 0 0 1-1.857-1.864 1.86 1.86 0 0 1 1.857-1.864 1.86 1.86 0 0 1 1.857 1.864zM174 333.87a1.86 1.86 0 0 1-1.857 1.864 1.86 1.86 0 0 1-1.857-1.864 1.86 1.86 0 0 1 1.857-1.864A1.86 1.86 0 0 1 174 333.87zM-4.286 348.783a1.86 1.86 0 0 1-1.857 1.864A1.86 1.86 0 0 1-8 348.783a1.86 1.86 0 0 1 1.857-1.864 1.86 1.86 0 0 1 1.857 1.864zM10.571 348.783a1.86 1.86 0 0 1-1.857 1.864 1.86 1.86 0 0 1-1.857-1.864 1.86 1.86 0 0 1 1.857-1.864 1.86 1.86 0 0 1 1.857 1.864zM25.429 348.783a1.86 1.86 0 0 1-1.858 1.864 1.86 1.86 0 0 1-1.857-1.864 1.86 1.86 0 0 1 1.857-1.864 1.86 1.86 0 0 1 1.858 1.864zM40.286 348.783a1.86 1.86 0 0 1-1.857 1.864 1.86 1.86 0 0 1-1.858-1.864 1.86 1.86 0 0 1 1.858-1.864 1.86 1.86 0 0 1 1.857 1.864zM55.143 348.783a1.86 1.86 0 0 1-1.857 1.864 1.86 1.86 0 0 1-1.857-1.864 1.86 1.86 0 0 1 1.857-1.864 1.86 1.86 0 0 1 1.857 1.864zM70 348.783a1.86 1.86 0 0 1-1.857 1.864 1.86 1.86 0 0 1-1.857-1.864 1.86 1.86 0 0 1 1.857-1.864A1.86 1.86 0 0 1 70 348.783zM84.857 348.783A1.86 1.86 0 0 1 83 350.647a1.86 1.86 0 0 1-1.857-1.864A1.86 1.86 0 0 1 83 346.919a1.86 1.86 0 0 1 1.857 1.864zM99.714 348.783a1.86 1.86 0 0 1-1.857 1.864A1.86 1.86 0 0 1 96 348.783a1.86 1.86 0 0 1 1.857-1.864 1.86 1.86 0 0 1 1.857 1.864zM114.571 348.783a1.86 1.86 0 0 1-1.857 1.864 1.86 1.86 0 0 1-1.857-1.864c0-1.029.832-1.864 1.857-1.864a1.86 1.86 0 0 1 1.857 1.864zM129.429 348.783a1.86 1.86 0 0 1-1.858 1.864 1.86 1.86 0 0 1-1.857-1.864c0-1.029.832-1.864 1.857-1.864 1.026 0 1.858.835 1.858 1.864zM144.286 348.783a1.86 1.86 0 0 1-1.857 1.864 1.86 1.86 0 0 1-1.858-1.864c0-1.029.832-1.864 1.858-1.864 1.025 0 1.857.835 1.857 1.864zM159.143 348.783a1.86 1.86 0 0 1-1.857 1.864 1.86 1.86 0 0 1-1.857-1.864 1.86 1.86 0 0 1 1.857-1.864c1.025 0 1.857.835 1.857 1.864zM174 348.783a1.86 1.86 0 0 1-1.857 1.864 1.86 1.86 0 0 1-1.857-1.864 1.86 1.86 0 0 1 1.857-1.864 1.86 1.86 0 0 1 1.857 1.864zM-4.286 363.697a1.86 1.86 0 0 1-1.857 1.864A1.86 1.86 0 0 1-8 363.697c0-1.03.831-1.865 1.857-1.865s1.857.835 1.857 1.865zM10.571 363.697a1.86 1.86 0 0 1-1.857 1.864 1.86 1.86 0 0 1-1.857-1.864c0-1.03.832-1.865 1.857-1.865 1.026 0 1.857.835 1.857 1.865zM25.429 363.697a1.86 1.86 0 0 1-1.858 1.864 1.86 1.86 0 0 1-1.857-1.864c0-1.03.832-1.865 1.857-1.865 1.026 0 1.858.835 1.858 1.865zM40.286 363.697a1.86 1.86 0 0 1-1.857 1.864 1.86 1.86 0 0 1-1.858-1.864c0-1.03.832-1.865 1.858-1.865 1.025 0 1.857.835 1.857 1.865zM55.143 363.697a1.86 1.86 0 0 1-1.857 1.864 1.86 1.86 0 0 1-1.857-1.864c0-1.03.831-1.865 1.857-1.865 1.025 0 1.857.835 1.857 1.865zM70 363.697a1.86 1.86 0 0 1-1.857 1.864 1.86 1.86 0 0 1-1.857-1.864c0-1.03.831-1.865 1.857-1.865 1.025 0 1.857.835 1.857 1.865zM84.857 363.697A1.86 1.86 0 0 1 83 365.561a1.86 1.86 0 0 1-1.857-1.864c0-1.03.831-1.865 1.857-1.865s1.857.835 1.857 1.865zM99.714 363.697a1.86 1.86 0 0 1-1.857 1.864A1.86 1.86 0 0 1 96 363.697c0-1.03.832-1.865 1.857-1.865 1.026 0 1.857.835 1.857 1.865zM114.571 363.697a1.86 1.86 0 0 1-1.857 1.864 1.861 1.861 0 0 1-1.857-1.864c0-1.03.832-1.865 1.857-1.865a1.86 1.86 0 0 1 1.857 1.865zM129.429 363.697a1.861 1.861 0 0 1-1.858 1.864 1.861 1.861 0 0 1-1.857-1.864c0-1.03.832-1.865 1.857-1.865 1.026 0 1.858.835 1.858 1.865zM144.286 363.697a1.861 1.861 0 0 1-1.857 1.864 1.861 1.861 0 0 1-1.858-1.864c0-1.03.832-1.865 1.858-1.865 1.025 0 1.857.835 1.857 1.865zM159.143 363.697a1.861 1.861 0 0 1-1.857 1.864 1.86 1.86 0 0 1-1.857-1.864 1.86 1.86 0 0 1 1.857-1.865c1.025 0 1.857.835 1.857 1.865zM174 363.697a1.86 1.86 0 0 1-1.857 1.864 1.86 1.86 0 0 1-1.857-1.864 1.86 1.86 0 0 1 1.857-1.865 1.86 1.86 0 0 1 1.857 1.865zM-4.286 378.61a1.86 1.86 0 0 1-1.857 1.864A1.86 1.86 0 0 1-8 378.61a1.86 1.86 0 0 1 1.857-1.864 1.86 1.86 0 0 1 1.857 1.864zM10.571 378.61a1.86 1.86 0 0 1-1.857 1.864 1.86 1.86 0 0 1-1.857-1.864 1.86 1.86 0 0 1 1.857-1.864 1.86 1.86 0 0 1 1.857 1.864zM25.429 378.61a1.86 1.86 0 0 1-1.858 1.864 1.86 1.86 0 0 1-1.857-1.864 1.86 1.86 0 0 1 1.857-1.864 1.86 1.86 0 0 1 1.858 1.864zM40.286 378.61a1.86 1.86 0 0 1-1.857 1.864 1.86 1.86 0 0 1-1.858-1.864 1.86 1.86 0 0 1 1.858-1.864 1.86 1.86 0 0 1 1.857 1.864zM55.143 378.61a1.86 1.86 0 0 1-1.857 1.864 1.86 1.86 0 0 1-1.857-1.864 1.86 1.86 0 0 1 1.857-1.864 1.86 1.86 0 0 1 1.857 1.864zM70 378.61a1.86 1.86 0 0 1-1.857 1.864 1.86 1.86 0 0 1-1.857-1.864 1.86 1.86 0 0 1 1.857-1.864A1.86 1.86 0 0 1 70 378.61zM84.857 378.61A1.86 1.86 0 0 1 83 380.474a1.86 1.86 0 0 1-1.857-1.864A1.86 1.86 0 0 1 83 376.746a1.86 1.86 0 0 1 1.857 1.864zM99.714 378.61a1.86 1.86 0 0 1-1.857 1.864A1.86 1.86 0 0 1 96 378.61a1.86 1.86 0 0 1 1.857-1.864 1.86 1.86 0 0 1 1.857 1.864zM114.571 378.61a1.86 1.86 0 0 1-1.857 1.864 1.861 1.861 0 0 1-1.857-1.864 1.86 1.86 0 0 1 1.857-1.864 1.86 1.86 0 0 1 1.857 1.864zM129.429 378.61a1.861 1.861 0 0 1-1.858 1.864 1.861 1.861 0 0 1-1.857-1.864 1.86 1.86 0 0 1 1.857-1.864 1.86 1.86 0 0 1 1.858 1.864zM144.286 378.61a1.861 1.861 0 0 1-1.857 1.864 1.861 1.861 0 0 1-1.858-1.864 1.86 1.86 0 0 1 1.858-1.864 1.86 1.86 0 0 1 1.857 1.864zM159.143 378.61a1.861 1.861 0 0 1-1.857 1.864 1.86 1.86 0 0 1-1.857-1.864 1.86 1.86 0 0 1 1.857-1.864 1.86 1.86 0 0 1 1.857 1.864zM174 378.61a1.86 1.86 0 0 1-1.857 1.864 1.86 1.86 0 0 1-1.857-1.864 1.86 1.86 0 0 1 1.857-1.864A1.86 1.86 0 0 1 174 378.61zM-4.286 393.523a1.86 1.86 0 0 1-1.857 1.864A1.86 1.86 0 0 1-8 393.523a1.86 1.86 0 0 1 1.857-1.864 1.86 1.86 0 0 1 1.857 1.864zM10.571 393.523a1.86 1.86 0 0 1-1.857 1.864 1.86 1.86 0 0 1-1.857-1.864 1.86 1.86 0 0 1 1.857-1.864 1.86 1.86 0 0 1 1.857 1.864zM25.429 393.523a1.86 1.86 0 0 1-1.858 1.864 1.86 1.86 0 0 1-1.857-1.864 1.86 1.86 0 0 1 1.857-1.864 1.86 1.86 0 0 1 1.858 1.864zM40.286 393.523a1.86 1.86 0 0 1-1.857 1.864 1.86 1.86 0 0 1-1.858-1.864 1.86 1.86 0 0 1 1.858-1.864 1.86 1.86 0 0 1 1.857 1.864zM55.143 393.523a1.86 1.86 0 0 1-1.857 1.864 1.86 1.86 0 0 1-1.857-1.864 1.86 1.86 0 0 1 1.857-1.864 1.86 1.86 0 0 1 1.857 1.864zM70 393.523a1.86 1.86 0 0 1-1.857 1.864 1.86 1.86 0 0 1-1.857-1.864 1.86 1.86 0 0 1 1.857-1.864A1.86 1.86 0 0 1 70 393.523zM84.857 393.523A1.86 1.86 0 0 1 83 395.387a1.86 1.86 0 0 1-1.857-1.864A1.86 1.86 0 0 1 83 391.659a1.86 1.86 0 0 1 1.857 1.864zM99.714 393.523a1.86 1.86 0 0 1-1.857 1.864A1.86 1.86 0 0 1 96 393.523a1.86 1.86 0 0 1 1.857-1.864 1.86 1.86 0 0 1 1.857 1.864zM114.571 393.523a1.86 1.86 0 0 1-1.857 1.864 1.86 1.86 0 0 1-1.857-1.864c0-1.029.832-1.864 1.857-1.864a1.86 1.86 0 0 1 1.857 1.864zM129.429 393.523a1.86 1.86 0 0 1-1.858 1.864 1.86 1.86 0 0 1-1.857-1.864c0-1.029.832-1.864 1.857-1.864 1.026 0 1.858.835 1.858 1.864zM144.286 393.523a1.86 1.86 0 0 1-1.857 1.864 1.86 1.86 0 0 1-1.858-1.864c0-1.029.832-1.864 1.858-1.864 1.025 0 1.857.835 1.857 1.864zM159.143 393.523a1.86 1.86 0 0 1-1.857 1.864 1.86 1.86 0 0 1-1.857-1.864 1.86 1.86 0 0 1 1.857-1.864c1.025 0 1.857.835 1.857 1.864zM174 393.523a1.86 1.86 0 0 1-1.857 1.864 1.86 1.86 0 0 1-1.857-1.864 1.86 1.86 0 0 1 1.857-1.864 1.86 1.86 0 0 1 1.857 1.864zM-4.286 408.436c0 1.03-.831 1.865-1.857 1.865A1.861 1.861 0 0 1-8 408.436a1.86 1.86 0 0 1 1.857-1.864 1.86 1.86 0 0 1 1.857 1.864zM10.571 408.436c0 1.03-.831 1.865-1.857 1.865a1.861 1.861 0 0 1-1.857-1.865 1.86 1.86 0 0 1 1.857-1.864 1.86 1.86 0 0 1 1.857 1.864zM25.429 408.436c0 1.03-.832 1.865-1.858 1.865a1.861 1.861 0 0 1-1.857-1.865 1.86 1.86 0 0 1 1.857-1.864 1.86 1.86 0 0 1 1.858 1.864zM40.286 408.436c0 1.03-.832 1.865-1.857 1.865a1.861 1.861 0 0 1-1.858-1.865 1.86 1.86 0 0 1 1.858-1.864 1.86 1.86 0 0 1 1.857 1.864zM55.143 408.436c0 1.03-.832 1.865-1.857 1.865a1.861 1.861 0 0 1-1.857-1.865 1.86 1.86 0 0 1 1.857-1.864 1.86 1.86 0 0 1 1.857 1.864zM70 408.436c0 1.03-.832 1.865-1.857 1.865a1.861 1.861 0 0 1-1.857-1.865 1.86 1.86 0 0 1 1.857-1.864A1.86 1.86 0 0 1 70 408.436zM84.857 408.436c0 1.03-.831 1.865-1.857 1.865a1.861 1.861 0 0 1-1.857-1.865A1.86 1.86 0 0 1 83 406.572a1.86 1.86 0 0 1 1.857 1.864zM99.714 408.436c0 1.03-.831 1.865-1.857 1.865A1.861 1.861 0 0 1 96 408.436a1.86 1.86 0 0 1 1.857-1.864 1.86 1.86 0 0 1 1.857 1.864zM114.571 408.436a1.86 1.86 0 0 1-1.857 1.865 1.861 1.861 0 0 1-1.857-1.865c0-1.029.832-1.864 1.857-1.864a1.86 1.86 0 0 1 1.857 1.864zM129.429 408.436c0 1.03-.832 1.865-1.858 1.865a1.861 1.861 0 0 1-1.857-1.865c0-1.029.832-1.864 1.857-1.864 1.026 0 1.858.835 1.858 1.864zM144.286 408.436c0 1.03-.832 1.865-1.857 1.865a1.862 1.862 0 0 1-1.858-1.865c0-1.029.832-1.864 1.858-1.864 1.025 0 1.857.835 1.857 1.864zM159.143 408.436c0 1.03-.832 1.865-1.857 1.865a1.86 1.86 0 0 1-1.857-1.865 1.86 1.86 0 0 1 1.857-1.864c1.025 0 1.857.835 1.857 1.864zM174 408.436a1.86 1.86 0 0 1-1.857 1.865 1.86 1.86 0 0 1-1.857-1.865 1.86 1.86 0 0 1 1.857-1.864 1.86 1.86 0 0 1 1.857 1.864zM-4.286 423.35a1.86 1.86 0 0 1-1.857 1.864A1.86 1.86 0 0 1-8 423.35a1.86 1.86 0 0 1 1.857-1.864 1.86 1.86 0 0 1 1.857 1.864zM10.571 423.35a1.86 1.86 0 0 1-1.857 1.864 1.86 1.86 0 0 1-1.857-1.864 1.86 1.86 0 0 1 1.857-1.864 1.86 1.86 0 0 1 1.857 1.864zM25.429 423.35a1.86 1.86 0 0 1-1.858 1.864 1.86 1.86 0 0 1-1.857-1.864 1.86 1.86 0 0 1 1.857-1.864 1.86 1.86 0 0 1 1.858 1.864zM40.286 423.35a1.86 1.86 0 0 1-1.857 1.864 1.86 1.86 0 0 1-1.858-1.864 1.86 1.86 0 0 1 1.858-1.864 1.86 1.86 0 0 1 1.857 1.864zM55.143 423.35a1.86 1.86 0 0 1-1.857 1.864 1.86 1.86 0 0 1-1.857-1.864 1.86 1.86 0 0 1 1.857-1.864 1.86 1.86 0 0 1 1.857 1.864zM70 423.35a1.86 1.86 0 0 1-1.857 1.864 1.86 1.86 0 0 1-1.857-1.864 1.86 1.86 0 0 1 1.857-1.864A1.86 1.86 0 0 1 70 423.35zM84.857 423.35A1.86 1.86 0 0 1 83 425.214a1.86 1.86 0 0 1-1.857-1.864A1.86 1.86 0 0 1 83 421.486a1.86 1.86 0 0 1 1.857 1.864zM99.714 423.35a1.86 1.86 0 0 1-1.857 1.864A1.86 1.86 0 0 1 96 423.35a1.86 1.86 0 0 1 1.857-1.864 1.86 1.86 0 0 1 1.857 1.864zM114.571 423.35a1.86 1.86 0 0 1-1.857 1.864 1.861 1.861 0 0 1-1.857-1.864 1.86 1.86 0 0 1 1.857-1.864 1.86 1.86 0 0 1 1.857 1.864zM129.429 423.35a1.861 1.861 0 0 1-1.858 1.864 1.861 1.861 0 0 1-1.857-1.864 1.86 1.86 0 0 1 1.857-1.864 1.86 1.86 0 0 1 1.858 1.864zM144.286 423.35a1.861 1.861 0 0 1-1.857 1.864 1.861 1.861 0 0 1-1.858-1.864 1.86 1.86 0 0 1 1.858-1.864 1.86 1.86 0 0 1 1.857 1.864zM159.143 423.35a1.861 1.861 0 0 1-1.857 1.864 1.86 1.86 0 0 1-1.857-1.864 1.86 1.86 0 0 1 1.857-1.864 1.86 1.86 0 0 1 1.857 1.864zM174 423.35a1.86 1.86 0 0 1-1.857 1.864 1.86 1.86 0 0 1-1.857-1.864 1.86 1.86 0 0 1 1.857-1.864A1.86 1.86 0 0 1 174 423.35zM-4.286 438.263a1.86 1.86 0 0 1-1.857 1.864A1.86 1.86 0 0 1-8 438.263a1.86 1.86 0 0 1 1.857-1.864 1.86 1.86 0 0 1 1.857 1.864zM10.571 438.263a1.86 1.86 0 0 1-1.857 1.864 1.86 1.86 0 0 1-1.857-1.864 1.86 1.86 0 0 1 1.857-1.864 1.86 1.86 0 0 1 1.857 1.864zM25.429 438.263a1.86 1.86 0 0 1-1.858 1.864 1.86 1.86 0 0 1-1.857-1.864 1.86 1.86 0 0 1 1.857-1.864 1.86 1.86 0 0 1 1.858 1.864zM40.286 438.263a1.86 1.86 0 0 1-1.857 1.864 1.86 1.86 0 0 1-1.858-1.864 1.86 1.86 0 0 1 1.858-1.864 1.86 1.86 0 0 1 1.857 1.864zM55.143 438.263a1.86 1.86 0 0 1-1.857 1.864 1.86 1.86 0 0 1-1.857-1.864 1.86 1.86 0 0 1 1.857-1.864 1.86 1.86 0 0 1 1.857 1.864zM70 438.263a1.86 1.86 0 0 1-1.857 1.864 1.86 1.86 0 0 1-1.857-1.864 1.86 1.86 0 0 1 1.857-1.864A1.86 1.86 0 0 1 70 438.263zM84.857 438.263A1.86 1.86 0 0 1 83 440.127a1.86 1.86 0 0 1-1.857-1.864A1.86 1.86 0 0 1 83 436.399a1.86 1.86 0 0 1 1.857 1.864zM99.714 438.263a1.86 1.86 0 0 1-1.857 1.864A1.86 1.86 0 0 1 96 438.263a1.86 1.86 0 0 1 1.857-1.864 1.86 1.86 0 0 1 1.857 1.864zM114.571 438.263a1.86 1.86 0 0 1-1.857 1.864 1.86 1.86 0 0 1-1.857-1.864 1.86 1.86 0 0 1 1.857-1.864 1.86 1.86 0 0 1 1.857 1.864zM129.429 438.263a1.86 1.86 0 0 1-1.858 1.864 1.86 1.86 0 0 1-1.857-1.864 1.86 1.86 0 0 1 1.857-1.864 1.86 1.86 0 0 1 1.858 1.864zM144.286 438.263a1.86 1.86 0 0 1-1.857 1.864 1.86 1.86 0 0 1-1.858-1.864 1.86 1.86 0 0 1 1.858-1.864 1.86 1.86 0 0 1 1.857 1.864zM159.143 438.263a1.86 1.86 0 0 1-1.857 1.864 1.86 1.86 0 0 1-1.857-1.864 1.86 1.86 0 0 1 1.857-1.864 1.86 1.86 0 0 1 1.857 1.864zM174 438.263a1.86 1.86 0 0 1-1.857 1.864 1.86 1.86 0 0 1-1.857-1.864 1.86 1.86 0 0 1 1.857-1.864 1.86 1.86 0 0 1 1.857 1.864zM-4.286 453.176a1.86 1.86 0 0 1-1.857 1.864A1.86 1.86 0 0 1-8 453.176a1.86 1.86 0 0 1 1.857-1.864 1.86 1.86 0 0 1 1.857 1.864zM10.571 453.176a1.86 1.86 0 0 1-1.857 1.864 1.86 1.86 0 0 1-1.857-1.864 1.86 1.86 0 0 1 1.857-1.864 1.86 1.86 0 0 1 1.857 1.864zM25.429 453.176a1.86 1.86 0 0 1-1.858 1.864 1.86 1.86 0 0 1-1.857-1.864 1.86 1.86 0 0 1 1.857-1.864 1.86 1.86 0 0 1 1.858 1.864zM40.286 453.176a1.86 1.86 0 0 1-1.857 1.864 1.86 1.86 0 0 1-1.858-1.864 1.86 1.86 0 0 1 1.858-1.864 1.86 1.86 0 0 1 1.857 1.864zM55.143 453.176a1.86 1.86 0 0 1-1.857 1.864 1.86 1.86 0 0 1-1.857-1.864 1.86 1.86 0 0 1 1.857-1.864 1.86 1.86 0 0 1 1.857 1.864zM70 453.176a1.86 1.86 0 0 1-1.857 1.864 1.86 1.86 0 0 1-1.857-1.864 1.86 1.86 0 0 1 1.857-1.864A1.86 1.86 0 0 1 70 453.176zM84.857 453.176A1.86 1.86 0 0 1 83 455.04a1.86 1.86 0 0 1-1.857-1.864A1.86 1.86 0 0 1 83 451.312a1.86 1.86 0 0 1 1.857 1.864zM99.714 453.176a1.86 1.86 0 0 1-1.857 1.864A1.86 1.86 0 0 1 96 453.176a1.86 1.86 0 0 1 1.857-1.864 1.86 1.86 0 0 1 1.857 1.864zM114.571 453.176a1.86 1.86 0 0 1-1.857 1.864 1.86 1.86 0 0 1-1.857-1.864c0-1.029.832-1.864 1.857-1.864a1.86 1.86 0 0 1 1.857 1.864zM129.429 453.176a1.86 1.86 0 0 1-1.858 1.864 1.86 1.86 0 0 1-1.857-1.864c0-1.029.832-1.864 1.857-1.864 1.026 0 1.858.835 1.858 1.864zM144.286 453.176a1.86 1.86 0 0 1-1.857 1.864 1.86 1.86 0 0 1-1.858-1.864c0-1.029.832-1.864 1.858-1.864 1.025 0 1.857.835 1.857 1.864zM159.143 453.176a1.86 1.86 0 0 1-1.857 1.864 1.86 1.86 0 0 1-1.857-1.864 1.86 1.86 0 0 1 1.857-1.864c1.025 0 1.857.835 1.857 1.864zM174 453.176a1.86 1.86 0 0 1-1.857 1.864 1.86 1.86 0 0 1-1.857-1.864 1.86 1.86 0 0 1 1.857-1.864 1.86 1.86 0 0 1 1.857 1.864zM-4.286 468.09a1.86 1.86 0 0 1-1.857 1.864A1.86 1.86 0 0 1-8 468.09c0-1.03.831-1.865 1.857-1.865s1.857.835 1.857 1.865zM10.571 468.09a1.86 1.86 0 0 1-1.857 1.864 1.86 1.86 0 0 1-1.857-1.864c0-1.03.832-1.865 1.857-1.865 1.026 0 1.857.835 1.857 1.865zM25.429 468.09a1.86 1.86 0 0 1-1.858 1.864 1.86 1.86 0 0 1-1.857-1.864c0-1.03.832-1.865 1.857-1.865 1.026 0 1.858.835 1.858 1.865zM40.286 468.09a1.86 1.86 0 0 1-1.857 1.864 1.86 1.86 0 0 1-1.858-1.864c0-1.03.832-1.865 1.858-1.865 1.025 0 1.857.835 1.857 1.865zM55.143 468.09a1.86 1.86 0 0 1-1.857 1.864 1.86 1.86 0 0 1-1.857-1.864c0-1.03.831-1.865 1.857-1.865 1.025 0 1.857.835 1.857 1.865zM70 468.09a1.86 1.86 0 0 1-1.857 1.864 1.86 1.86 0 0 1-1.857-1.864c0-1.03.831-1.865 1.857-1.865 1.025 0 1.857.835 1.857 1.865zM84.857 468.09A1.86 1.86 0 0 1 83 469.954a1.86 1.86 0 0 1-1.857-1.864c0-1.03.831-1.865 1.857-1.865s1.857.835 1.857 1.865zM99.714 468.09a1.86 1.86 0 0 1-1.857 1.864A1.86 1.86 0 0 1 96 468.09c0-1.03.832-1.865 1.857-1.865 1.026 0 1.857.835 1.857 1.865zM114.571 468.09a1.86 1.86 0 0 1-1.857 1.864 1.861 1.861 0 0 1-1.857-1.864c0-1.03.832-1.865 1.857-1.865a1.86 1.86 0 0 1 1.857 1.865zM129.429 468.09a1.861 1.861 0 0 1-1.858 1.864 1.861 1.861 0 0 1-1.857-1.864c0-1.03.832-1.865 1.857-1.865 1.026 0 1.858.835 1.858 1.865zM144.286 468.09a1.861 1.861 0 0 1-1.857 1.864 1.861 1.861 0 0 1-1.858-1.864c0-1.03.832-1.865 1.858-1.865 1.025 0 1.857.835 1.857 1.865zM159.143 468.09a1.861 1.861 0 0 1-1.857 1.864 1.86 1.86 0 0 1-1.857-1.864 1.86 1.86 0 0 1 1.857-1.865c1.025 0 1.857.835 1.857 1.865zM174 468.09a1.86 1.86 0 0 1-1.857 1.864 1.86 1.86 0 0 1-1.857-1.864 1.86 1.86 0 0 1 1.857-1.865A1.86 1.86 0 0 1 174 468.09zM-4.286 483.003a1.86 1.86 0 0 1-1.857 1.864A1.86 1.86 0 0 1-8 483.003a1.86 1.86 0 0 1 1.857-1.864 1.86 1.86 0 0 1 1.857 1.864zM10.571 483.003a1.86 1.86 0 0 1-1.857 1.864 1.86 1.86 0 0 1-1.857-1.864 1.86 1.86 0 0 1 1.857-1.864 1.86 1.86 0 0 1 1.857 1.864zM25.429 483.003a1.86 1.86 0 0 1-1.858 1.864 1.86 1.86 0 0 1-1.857-1.864 1.86 1.86 0 0 1 1.857-1.864 1.86 1.86 0 0 1 1.858 1.864zM40.286 483.003a1.86 1.86 0 0 1-1.857 1.864 1.86 1.86 0 0 1-1.858-1.864 1.86 1.86 0 0 1 1.858-1.864 1.86 1.86 0 0 1 1.857 1.864zM55.143 483.003a1.86 1.86 0 0 1-1.857 1.864 1.86 1.86 0 0 1-1.857-1.864 1.86 1.86 0 0 1 1.857-1.864 1.86 1.86 0 0 1 1.857 1.864zM70 483.003a1.86 1.86 0 0 1-1.857 1.864 1.86 1.86 0 0 1-1.857-1.864 1.86 1.86 0 0 1 1.857-1.864A1.86 1.86 0 0 1 70 483.003zM84.857 483.003A1.86 1.86 0 0 1 83 484.867a1.86 1.86 0 0 1-1.857-1.864A1.86 1.86 0 0 1 83 481.139a1.86 1.86 0 0 1 1.857 1.864zM99.714 483.003a1.86 1.86 0 0 1-1.857 1.864A1.86 1.86 0 0 1 96 483.003a1.86 1.86 0 0 1 1.857-1.864 1.86 1.86 0 0 1 1.857 1.864zM114.571 483.003a1.86 1.86 0 0 1-1.857 1.864 1.861 1.861 0 0 1-1.857-1.864 1.86 1.86 0 0 1 1.857-1.864 1.86 1.86 0 0 1 1.857 1.864zM129.429 483.003a1.861 1.861 0 0 1-1.858 1.864 1.861 1.861 0 0 1-1.857-1.864 1.86 1.86 0 0 1 1.857-1.864 1.86 1.86 0 0 1 1.858 1.864zM144.286 483.003a1.861 1.861 0 0 1-1.857 1.864 1.861 1.861 0 0 1-1.858-1.864 1.86 1.86 0 0 1 1.858-1.864 1.86 1.86 0 0 1 1.857 1.864zM159.143 483.003a1.861 1.861 0 0 1-1.857 1.864 1.86 1.86 0 0 1-1.857-1.864 1.86 1.86 0 0 1 1.857-1.864 1.86 1.86 0 0 1 1.857 1.864zM174 483.003a1.86 1.86 0 0 1-1.857 1.864 1.86 1.86 0 0 1-1.857-1.864 1.86 1.86 0 0 1 1.857-1.864 1.86 1.86 0 0 1 1.857 1.864zM-4.286 497.916a1.86 1.86 0 0 1-1.857 1.864A1.86 1.86 0 0 1-8 497.916a1.86 1.86 0 0 1 1.857-1.864 1.86 1.86 0 0 1 1.857 1.864zM10.571 497.916a1.86 1.86 0 0 1-1.857 1.864 1.86 1.86 0 0 1-1.857-1.864 1.86 1.86 0 0 1 1.857-1.864 1.86 1.86 0 0 1 1.857 1.864zM25.429 497.916a1.86 1.86 0 0 1-1.858 1.864 1.86 1.86 0 0 1-1.857-1.864 1.86 1.86 0 0 1 1.857-1.864 1.86 1.86 0 0 1 1.858 1.864zM40.286 497.916a1.86 1.86 0 0 1-1.857 1.864 1.86 1.86 0 0 1-1.858-1.864 1.86 1.86 0 0 1 1.858-1.864 1.86 1.86 0 0 1 1.857 1.864zM55.143 497.916a1.86 1.86 0 0 1-1.857 1.864 1.86 1.86 0 0 1-1.857-1.864 1.86 1.86 0 0 1 1.857-1.864 1.86 1.86 0 0 1 1.857 1.864zM70 497.916a1.86 1.86 0 0 1-1.857 1.864 1.86 1.86 0 0 1-1.857-1.864 1.86 1.86 0 0 1 1.857-1.864A1.86 1.86 0 0 1 70 497.916zM84.857 497.916A1.86 1.86 0 0 1 83 499.78a1.86 1.86 0 0 1-1.857-1.864A1.86 1.86 0 0 1 83 496.052a1.86 1.86 0 0 1 1.857 1.864zM99.714 497.916a1.86 1.86 0 0 1-1.857 1.864A1.86 1.86 0 0 1 96 497.916a1.86 1.86 0 0 1 1.857-1.864 1.86 1.86 0 0 1 1.857 1.864zM114.571 497.916a1.86 1.86 0 0 1-1.857 1.864 1.86 1.86 0 0 1-1.857-1.864c0-1.029.832-1.864 1.857-1.864a1.86 1.86 0 0 1 1.857 1.864zM129.429 497.916a1.86 1.86 0 0 1-1.858 1.864 1.86 1.86 0 0 1-1.857-1.864c0-1.029.832-1.864 1.857-1.864 1.026 0 1.858.835 1.858 1.864zM144.286 497.916a1.86 1.86 0 0 1-1.857 1.864 1.86 1.86 0 0 1-1.858-1.864c0-1.029.832-1.864 1.858-1.864 1.025 0 1.857.835 1.857 1.864zM159.143 497.916a1.86 1.86 0 0 1-1.857 1.864 1.86 1.86 0 0 1-1.857-1.864 1.86 1.86 0 0 1 1.857-1.864c1.025 0 1.857.835 1.857 1.864zM174 497.916a1.86 1.86 0 0 1-1.857 1.864 1.86 1.86 0 0 1-1.857-1.864 1.86 1.86 0 0 1 1.857-1.864 1.86 1.86 0 0 1 1.857 1.864zM-4.286 512.829c0 1.03-.831 1.865-1.857 1.865A1.861 1.861 0 0 1-8 512.829a1.86 1.86 0 0 1 1.857-1.864 1.86 1.86 0 0 1 1.857 1.864zM10.571 512.829c0 1.03-.831 1.865-1.857 1.865a1.861 1.861 0 0 1-1.857-1.865 1.86 1.86 0 0 1 1.857-1.864 1.86 1.86 0 0 1 1.857 1.864zM25.429 512.829c0 1.03-.832 1.865-1.858 1.865a1.861 1.861 0 0 1-1.857-1.865 1.86 1.86 0 0 1 1.857-1.864 1.86 1.86 0 0 1 1.858 1.864zM40.286 512.829c0 1.03-.832 1.865-1.857 1.865a1.861 1.861 0 0 1-1.858-1.865 1.86 1.86 0 0 1 1.858-1.864 1.86 1.86 0 0 1 1.857 1.864zM55.143 512.829c0 1.03-.832 1.865-1.857 1.865a1.861 1.861 0 0 1-1.857-1.865 1.86 1.86 0 0 1 1.857-1.864 1.86 1.86 0 0 1 1.857 1.864zM70 512.829c0 1.03-.832 1.865-1.857 1.865a1.861 1.861 0 0 1-1.857-1.865 1.86 1.86 0 0 1 1.857-1.864A1.86 1.86 0 0 1 70 512.829zM84.857 512.829c0 1.03-.831 1.865-1.857 1.865a1.861 1.861 0 0 1-1.857-1.865A1.86 1.86 0 0 1 83 510.965a1.86 1.86 0 0 1 1.857 1.864zM99.714 512.829c0 1.03-.831 1.865-1.857 1.865A1.861 1.861 0 0 1 96 512.829a1.86 1.86 0 0 1 1.857-1.864 1.86 1.86 0 0 1 1.857 1.864zM114.571 512.829a1.86 1.86 0 0 1-1.857 1.865 1.861 1.861 0 0 1-1.857-1.865c0-1.029.832-1.864 1.857-1.864a1.86 1.86 0 0 1 1.857 1.864zM129.429 512.829c0 1.03-.832 1.865-1.858 1.865a1.861 1.861 0 0 1-1.857-1.865c0-1.029.832-1.864 1.857-1.864 1.026 0 1.858.835 1.858 1.864zM144.286 512.829c0 1.03-.832 1.865-1.857 1.865a1.862 1.862 0 0 1-1.858-1.865c0-1.029.832-1.864 1.858-1.864 1.025 0 1.857.835 1.857 1.864zM159.143 512.829c0 1.03-.832 1.865-1.857 1.865a1.86 1.86 0 0 1-1.857-1.865 1.86 1.86 0 0 1 1.857-1.864c1.025 0 1.857.835 1.857 1.864zM174 512.829a1.86 1.86 0 0 1-1.857 1.865 1.86 1.86 0 0 1-1.857-1.865 1.86 1.86 0 0 1 1.857-1.864 1.86 1.86 0 0 1 1.857 1.864zM-4.286 527.743a1.86 1.86 0 0 1-1.857 1.864A1.86 1.86 0 0 1-8 527.743a1.86 1.86 0 0 1 1.857-1.864 1.86 1.86 0 0 1 1.857 1.864zM10.571 527.743a1.86 1.86 0 0 1-1.857 1.864 1.86 1.86 0 0 1-1.857-1.864 1.86 1.86 0 0 1 1.857-1.864 1.86 1.86 0 0 1 1.857 1.864zM25.429 527.743a1.86 1.86 0 0 1-1.858 1.864 1.86 1.86 0 0 1-1.857-1.864 1.86 1.86 0 0 1 1.857-1.864 1.86 1.86 0 0 1 1.858 1.864zM40.286 527.743a1.86 1.86 0 0 1-1.857 1.864 1.86 1.86 0 0 1-1.858-1.864 1.86 1.86 0 0 1 1.858-1.864 1.86 1.86 0 0 1 1.857 1.864zM55.143 527.743a1.86 1.86 0 0 1-1.857 1.864 1.86 1.86 0 0 1-1.857-1.864 1.86 1.86 0 0 1 1.857-1.864 1.86 1.86 0 0 1 1.857 1.864zM70 527.743a1.86 1.86 0 0 1-1.857 1.864 1.86 1.86 0 0 1-1.857-1.864 1.86 1.86 0 0 1 1.857-1.864A1.86 1.86 0 0 1 70 527.743zM84.857 527.743A1.86 1.86 0 0 1 83 529.607a1.86 1.86 0 0 1-1.857-1.864A1.86 1.86 0 0 1 83 525.879a1.86 1.86 0 0 1 1.857 1.864zM99.714 527.743a1.86 1.86 0 0 1-1.857 1.864A1.86 1.86 0 0 1 96 527.743a1.86 1.86 0 0 1 1.857-1.864 1.86 1.86 0 0 1 1.857 1.864zM114.571 527.743a1.86 1.86 0 0 1-1.857 1.864 1.861 1.861 0 0 1-1.857-1.864 1.86 1.86 0 0 1 1.857-1.864 1.86 1.86 0 0 1 1.857 1.864zM129.429 527.743a1.861 1.861 0 0 1-1.858 1.864 1.861 1.861 0 0 1-1.857-1.864 1.86 1.86 0 0 1 1.857-1.864 1.86 1.86 0 0 1 1.858 1.864zM144.286 527.743a1.861 1.861 0 0 1-1.857 1.864 1.861 1.861 0 0 1-1.858-1.864 1.86 1.86 0 0 1 1.858-1.864 1.86 1.86 0 0 1 1.857 1.864zM159.143 527.743a1.861 1.861 0 0 1-1.857 1.864 1.86 1.86 0 0 1-1.857-1.864 1.86 1.86 0 0 1 1.857-1.864 1.86 1.86 0 0 1 1.857 1.864zM174 527.743a1.86 1.86 0 0 1-1.857 1.864 1.86 1.86 0 0 1-1.857-1.864 1.86 1.86 0 0 1 1.857-1.864 1.86 1.86 0 0 1 1.857 1.864zM-4.286 542.656a1.86 1.86 0 0 1-1.857 1.864A1.86 1.86 0 0 1-8 542.656a1.86 1.86 0 0 1 1.857-1.864 1.86 1.86 0 0 1 1.857 1.864zM10.571 542.656a1.86 1.86 0 0 1-1.857 1.864 1.86 1.86 0 0 1-1.857-1.864 1.86 1.86 0 0 1 1.857-1.864 1.86 1.86 0 0 1 1.857 1.864zM25.429 542.656a1.86 1.86 0 0 1-1.858 1.864 1.86 1.86 0 0 1-1.857-1.864 1.86 1.86 0 0 1 1.857-1.864 1.86 1.86 0 0 1 1.858 1.864zM40.286 542.656a1.86 1.86 0 0 1-1.857 1.864 1.86 1.86 0 0 1-1.858-1.864 1.86 1.86 0 0 1 1.858-1.864 1.86 1.86 0 0 1 1.857 1.864zM55.143 542.656a1.86 1.86 0 0 1-1.857 1.864 1.86 1.86 0 0 1-1.857-1.864 1.86 1.86 0 0 1 1.857-1.864 1.86 1.86 0 0 1 1.857 1.864zM70 542.656a1.86 1.86 0 0 1-1.857 1.864 1.86 1.86 0 0 1-1.857-1.864 1.86 1.86 0 0 1 1.857-1.864A1.86 1.86 0 0 1 70 542.656zM84.857 542.656A1.86 1.86 0 0 1 83 544.52a1.86 1.86 0 0 1-1.857-1.864A1.86 1.86 0 0 1 83 540.792a1.86 1.86 0 0 1 1.857 1.864zM99.714 542.656a1.86 1.86 0 0 1-1.857 1.864A1.86 1.86 0 0 1 96 542.656a1.86 1.86 0 0 1 1.857-1.864 1.86 1.86 0 0 1 1.857 1.864zM114.571 542.656a1.86 1.86 0 0 1-1.857 1.864 1.86 1.86 0 0 1-1.857-1.864c0-1.029.832-1.864 1.857-1.864a1.86 1.86 0 0 1 1.857 1.864zM129.429 542.656a1.86 1.86 0 0 1-1.858 1.864 1.86 1.86 0 0 1-1.857-1.864c0-1.029.832-1.864 1.857-1.864 1.026 0 1.858.835 1.858 1.864zM144.286 542.656a1.86 1.86 0 0 1-1.857 1.864 1.86 1.86 0 0 1-1.858-1.864c0-1.029.832-1.864 1.858-1.864 1.025 0 1.857.835 1.857 1.864zM159.143 542.656a1.86 1.86 0 0 1-1.857 1.864 1.86 1.86 0 0 1-1.857-1.864 1.86 1.86 0 0 1 1.857-1.864c1.025 0 1.857.835 1.857 1.864zM174 542.656a1.86 1.86 0 0 1-1.857 1.864 1.86 1.86 0 0 1-1.857-1.864 1.86 1.86 0 0 1 1.857-1.864 1.86 1.86 0 0 1 1.857 1.864zM-4.286 557.569c0 1.03-.831 1.865-1.857 1.865A1.861 1.861 0 0 1-8 557.569a1.86 1.86 0 0 1 1.857-1.864 1.86 1.86 0 0 1 1.857 1.864zM10.571 557.569c0 1.03-.831 1.865-1.857 1.865a1.861 1.861 0 0 1-1.857-1.865 1.86 1.86 0 0 1 1.857-1.864 1.86 1.86 0 0 1 1.857 1.864zM25.429 557.569c0 1.03-.832 1.865-1.858 1.865a1.861 1.861 0 0 1-1.857-1.865 1.86 1.86 0 0 1 1.857-1.864 1.86 1.86 0 0 1 1.858 1.864zM40.286 557.569c0 1.03-.832 1.865-1.857 1.865a1.861 1.861 0 0 1-1.858-1.865 1.86 1.86 0 0 1 1.858-1.864 1.86 1.86 0 0 1 1.857 1.864zM55.143 557.569c0 1.03-.832 1.865-1.857 1.865a1.861 1.861 0 0 1-1.857-1.865 1.86 1.86 0 0 1 1.857-1.864 1.86 1.86 0 0 1 1.857 1.864zM70 557.569c0 1.03-.832 1.865-1.857 1.865a1.861 1.861 0 0 1-1.857-1.865 1.86 1.86 0 0 1 1.857-1.864A1.86 1.86 0 0 1 70 557.569zM84.857 557.569c0 1.03-.831 1.865-1.857 1.865a1.861 1.861 0 0 1-1.857-1.865A1.86 1.86 0 0 1 83 555.705a1.86 1.86 0 0 1 1.857 1.864zM99.714 557.569c0 1.03-.831 1.865-1.857 1.865A1.861 1.861 0 0 1 96 557.569a1.86 1.86 0 0 1 1.857-1.864 1.86 1.86 0 0 1 1.857 1.864zM114.571 557.569a1.86 1.86 0 0 1-1.857 1.865 1.861 1.861 0 0 1-1.857-1.865c0-1.029.832-1.864 1.857-1.864a1.86 1.86 0 0 1 1.857 1.864zM129.429 557.569c0 1.03-.832 1.865-1.858 1.865a1.861 1.861 0 0 1-1.857-1.865c0-1.029.832-1.864 1.857-1.864 1.026 0 1.858.835 1.858 1.864zM144.286 557.569c0 1.03-.832 1.865-1.857 1.865a1.862 1.862 0 0 1-1.858-1.865c0-1.029.832-1.864 1.858-1.864 1.025 0 1.857.835 1.857 1.864zM159.143 557.569c0 1.03-.832 1.865-1.857 1.865a1.86 1.86 0 0 1-1.857-1.865 1.86 1.86 0 0 1 1.857-1.864c1.025 0 1.857.835 1.857 1.864zM174 557.569a1.86 1.86 0 0 1-1.857 1.865 1.86 1.86 0 0 1-1.857-1.865 1.86 1.86 0 0 1 1.857-1.864 1.86 1.86 0 0 1 1.857 1.864zM-4.286 572.483a1.86 1.86 0 0 1-1.857 1.864A1.86 1.86 0 0 1-8 572.483c0-1.03.831-1.865 1.857-1.865s1.857.835 1.857 1.865zM10.571 572.483a1.86 1.86 0 0 1-1.857 1.864 1.86 1.86 0 0 1-1.857-1.864c0-1.03.832-1.865 1.857-1.865 1.026 0 1.857.835 1.857 1.865zM25.429 572.483a1.86 1.86 0 0 1-1.858 1.864 1.86 1.86 0 0 1-1.857-1.864c0-1.03.832-1.865 1.857-1.865 1.026 0 1.858.835 1.858 1.865zM40.286 572.483a1.86 1.86 0 0 1-1.857 1.864 1.86 1.86 0 0 1-1.858-1.864c0-1.03.832-1.865 1.858-1.865 1.025 0 1.857.835 1.857 1.865zM55.143 572.483a1.86 1.86 0 0 1-1.857 1.864 1.86 1.86 0 0 1-1.857-1.864c0-1.03.831-1.865 1.857-1.865 1.025 0 1.857.835 1.857 1.865zM70 572.483a1.86 1.86 0 0 1-1.857 1.864 1.86 1.86 0 0 1-1.857-1.864c0-1.03.831-1.865 1.857-1.865 1.025 0 1.857.835 1.857 1.865zM84.857 572.483A1.86 1.86 0 0 1 83 574.347a1.86 1.86 0 0 1-1.857-1.864c0-1.03.831-1.865 1.857-1.865s1.857.835 1.857 1.865zM99.714 572.483a1.86 1.86 0 0 1-1.857 1.864A1.86 1.86 0 0 1 96 572.483c0-1.03.832-1.865 1.857-1.865 1.026 0 1.857.835 1.857 1.865zM114.571 572.483a1.86 1.86 0 0 1-1.857 1.864 1.861 1.861 0 0 1-1.857-1.864c0-1.03.832-1.865 1.857-1.865a1.86 1.86 0 0 1 1.857 1.865zM129.429 572.483a1.861 1.861 0 0 1-1.858 1.864 1.861 1.861 0 0 1-1.857-1.864c0-1.03.832-1.865 1.857-1.865 1.026 0 1.858.835 1.858 1.865zM144.286 572.483a1.861 1.861 0 0 1-1.857 1.864 1.861 1.861 0 0 1-1.858-1.864c0-1.03.832-1.865 1.858-1.865 1.025 0 1.857.835 1.857 1.865zM159.143 572.483a1.861 1.861 0 0 1-1.857 1.864 1.86 1.86 0 0 1-1.857-1.864 1.86 1.86 0 0 1 1.857-1.865c1.025 0 1.857.835 1.857 1.865zM174 572.483a1.86 1.86 0 0 1-1.857 1.864 1.86 1.86 0 0 1-1.857-1.864 1.86 1.86 0 0 1 1.857-1.865 1.86 1.86 0 0 1 1.857 1.865zM-4.286 587.396a1.86 1.86 0 0 1-1.857 1.864A1.86 1.86 0 0 1-8 587.396a1.86 1.86 0 0 1 1.857-1.864 1.86 1.86 0 0 1 1.857 1.864zM10.571 587.396a1.86 1.86 0 0 1-1.857 1.864 1.86 1.86 0 0 1-1.857-1.864 1.86 1.86 0 0 1 1.857-1.864 1.86 1.86 0 0 1 1.857 1.864zM25.429 587.396a1.86 1.86 0 0 1-1.858 1.864 1.86 1.86 0 0 1-1.857-1.864 1.86 1.86 0 0 1 1.857-1.864 1.86 1.86 0 0 1 1.858 1.864zM40.286 587.396a1.86 1.86 0 0 1-1.857 1.864 1.86 1.86 0 0 1-1.858-1.864 1.86 1.86 0 0 1 1.858-1.864 1.86 1.86 0 0 1 1.857 1.864zM55.143 587.396a1.86 1.86 0 0 1-1.857 1.864 1.86 1.86 0 0 1-1.857-1.864 1.86 1.86 0 0 1 1.857-1.864 1.86 1.86 0 0 1 1.857 1.864zM70 587.396a1.86 1.86 0 0 1-1.857 1.864 1.86 1.86 0 0 1-1.857-1.864 1.86 1.86 0 0 1 1.857-1.864A1.86 1.86 0 0 1 70 587.396zM84.857 587.396A1.86 1.86 0 0 1 83 589.26a1.86 1.86 0 0 1-1.857-1.864A1.86 1.86 0 0 1 83 585.532a1.86 1.86 0 0 1 1.857 1.864zM99.714 587.396a1.86 1.86 0 0 1-1.857 1.864A1.86 1.86 0 0 1 96 587.396a1.86 1.86 0 0 1 1.857-1.864 1.86 1.86 0 0 1 1.857 1.864zM114.571 587.396a1.86 1.86 0 0 1-1.857 1.864 1.861 1.861 0 0 1-1.857-1.864 1.86 1.86 0 0 1 1.857-1.864 1.86 1.86 0 0 1 1.857 1.864zM129.429 587.396a1.861 1.861 0 0 1-1.858 1.864 1.861 1.861 0 0 1-1.857-1.864 1.86 1.86 0 0 1 1.857-1.864 1.86 1.86 0 0 1 1.858 1.864zM144.286 587.396a1.861 1.861 0 0 1-1.857 1.864 1.861 1.861 0 0 1-1.858-1.864 1.86 1.86 0 0 1 1.858-1.864 1.86 1.86 0 0 1 1.857 1.864zM159.143 587.396a1.861 1.861 0 0 1-1.857 1.864 1.86 1.86 0 0 1-1.857-1.864 1.86 1.86 0 0 1 1.857-1.864 1.86 1.86 0 0 1 1.857 1.864zM174 587.396a1.86 1.86 0 0 1-1.857 1.864 1.86 1.86 0 0 1-1.857-1.864 1.86 1.86 0 0 1 1.857-1.864 1.86 1.86 0 0 1 1.857 1.864zM-4.286 602.309a1.86 1.86 0 0 1-1.857 1.864A1.86 1.86 0 0 1-8 602.309a1.86 1.86 0 0 1 1.857-1.864 1.86 1.86 0 0 1 1.857 1.864zM10.571 602.309a1.86 1.86 0 0 1-1.857 1.864 1.86 1.86 0 0 1-1.857-1.864 1.86 1.86 0 0 1 1.857-1.864 1.86 1.86 0 0 1 1.857 1.864zM25.429 602.309a1.86 1.86 0 0 1-1.858 1.864 1.86 1.86 0 0 1-1.857-1.864 1.86 1.86 0 0 1 1.857-1.864 1.86 1.86 0 0 1 1.858 1.864zM40.286 602.309a1.86 1.86 0 0 1-1.857 1.864 1.86 1.86 0 0 1-1.858-1.864 1.86 1.86 0 0 1 1.858-1.864 1.86 1.86 0 0 1 1.857 1.864zM55.143 602.309a1.86 1.86 0 0 1-1.857 1.864 1.86 1.86 0 0 1-1.857-1.864 1.86 1.86 0 0 1 1.857-1.864 1.86 1.86 0 0 1 1.857 1.864zM70 602.309a1.86 1.86 0 0 1-1.857 1.864 1.86 1.86 0 0 1-1.857-1.864 1.86 1.86 0 0 1 1.857-1.864A1.86 1.86 0 0 1 70 602.309zM84.857 602.309A1.86 1.86 0 0 1 83 604.173a1.86 1.86 0 0 1-1.857-1.864A1.86 1.86 0 0 1 83 600.445a1.86 1.86 0 0 1 1.857 1.864zM99.714 602.309a1.86 1.86 0 0 1-1.857 1.864A1.86 1.86 0 0 1 96 602.309a1.86 1.86 0 0 1 1.857-1.864 1.86 1.86 0 0 1 1.857 1.864zM114.571 602.309a1.86 1.86 0 0 1-1.857 1.864 1.86 1.86 0 0 1-1.857-1.864c0-1.029.832-1.864 1.857-1.864a1.86 1.86 0 0 1 1.857 1.864zM129.429 602.309a1.86 1.86 0 0 1-1.858 1.864 1.86 1.86 0 0 1-1.857-1.864c0-1.029.832-1.864 1.857-1.864 1.026 0 1.858.835 1.858 1.864zM144.286 602.309a1.86 1.86 0 0 1-1.857 1.864 1.86 1.86 0 0 1-1.858-1.864c0-1.029.832-1.864 1.858-1.864 1.025 0 1.857.835 1.857 1.864zM159.143 602.309a1.86 1.86 0 0 1-1.857 1.864 1.86 1.86 0 0 1-1.857-1.864 1.86 1.86 0 0 1 1.857-1.864c1.025 0 1.857.835 1.857 1.864zM174 602.309a1.86 1.86 0 0 1-1.857 1.864 1.86 1.86 0 0 1-1.857-1.864 1.86 1.86 0 0 1 1.857-1.864 1.86 1.86 0 0 1 1.857 1.864zM-4.286 617.223a1.86 1.86 0 0 1-1.857 1.864A1.86 1.86 0 0 1-8 617.223c0-1.03.831-1.865 1.857-1.865s1.857.835 1.857 1.865zM10.571 617.223a1.86 1.86 0 0 1-1.857 1.864 1.86 1.86 0 0 1-1.857-1.864c0-1.03.832-1.865 1.857-1.865 1.026 0 1.857.835 1.857 1.865zM25.429 617.223a1.86 1.86 0 0 1-1.858 1.864 1.86 1.86 0 0 1-1.857-1.864c0-1.03.832-1.865 1.857-1.865 1.026 0 1.858.835 1.858 1.865zM40.286 617.223a1.86 1.86 0 0 1-1.857 1.864 1.86 1.86 0 0 1-1.858-1.864c0-1.03.832-1.865 1.858-1.865 1.025 0 1.857.835 1.857 1.865zM55.143 617.223a1.86 1.86 0 0 1-1.857 1.864 1.86 1.86 0 0 1-1.857-1.864c0-1.03.831-1.865 1.857-1.865 1.025 0 1.857.835 1.857 1.865zM70 617.223a1.86 1.86 0 0 1-1.857 1.864 1.86 1.86 0 0 1-1.857-1.864c0-1.03.831-1.865 1.857-1.865 1.025 0 1.857.835 1.857 1.865zM84.857 617.223A1.86 1.86 0 0 1 83 619.087a1.86 1.86 0 0 1-1.857-1.864c0-1.03.831-1.865 1.857-1.865s1.857.835 1.857 1.865zM99.714 617.223a1.86 1.86 0 0 1-1.857 1.864A1.86 1.86 0 0 1 96 617.223c0-1.03.832-1.865 1.857-1.865 1.026 0 1.857.835 1.857 1.865zM114.571 617.223a1.86 1.86 0 0 1-1.857 1.864 1.861 1.861 0 0 1-1.857-1.864c0-1.03.832-1.865 1.857-1.865a1.86 1.86 0 0 1 1.857 1.865zM129.429 617.223a1.861 1.861 0 0 1-1.858 1.864 1.861 1.861 0 0 1-1.857-1.864c0-1.03.832-1.865 1.857-1.865 1.026 0 1.858.835 1.858 1.865zM144.286 617.223a1.861 1.861 0 0 1-1.857 1.864 1.861 1.861 0 0 1-1.858-1.864c0-1.03.832-1.865 1.858-1.865 1.025 0 1.857.835 1.857 1.865zM159.143 617.223a1.861 1.861 0 0 1-1.857 1.864 1.86 1.86 0 0 1-1.857-1.864 1.86 1.86 0 0 1 1.857-1.865c1.025 0 1.857.835 1.857 1.865zM174 617.223a1.86 1.86 0 0 1-1.857 1.864 1.86 1.86 0 0 1-1.857-1.864 1.86 1.86 0 0 1 1.857-1.865 1.86 1.86 0 0 1 1.857 1.865zM-4.286 632.136A1.86 1.86 0 0 1-6.143 634 1.86 1.86 0 0 1-8 632.136a1.86 1.86 0 0 1 1.857-1.864 1.86 1.86 0 0 1 1.857 1.864zM10.571 632.136A1.86 1.86 0 0 1 8.714 634a1.86 1.86 0 0 1-1.857-1.864 1.86 1.86 0 0 1 1.857-1.864 1.86 1.86 0 0 1 1.857 1.864zM25.429 632.136A1.86 1.86 0 0 1 23.57 634a1.86 1.86 0 0 1-1.857-1.864 1.86 1.86 0 0 1 1.857-1.864 1.86 1.86 0 0 1 1.858 1.864zM40.286 632.136A1.86 1.86 0 0 1 38.429 634a1.86 1.86 0 0 1-1.858-1.864 1.86 1.86 0 0 1 1.858-1.864 1.86 1.86 0 0 1 1.857 1.864zM55.143 632.136A1.86 1.86 0 0 1 53.286 634a1.86 1.86 0 0 1-1.857-1.864 1.86 1.86 0 0 1 1.857-1.864 1.86 1.86 0 0 1 1.857 1.864zM70 632.136A1.86 1.86 0 0 1 68.143 634a1.86 1.86 0 0 1-1.857-1.864 1.86 1.86 0 0 1 1.857-1.864A1.86 1.86 0 0 1 70 632.136zM84.857 632.136A1.86 1.86 0 0 1 83 634a1.86 1.86 0 0 1-1.857-1.864A1.86 1.86 0 0 1 83 630.272a1.86 1.86 0 0 1 1.857 1.864zM99.714 632.136A1.86 1.86 0 0 1 97.857 634 1.86 1.86 0 0 1 96 632.136a1.86 1.86 0 0 1 1.857-1.864 1.86 1.86 0 0 1 1.857 1.864zM114.571 632.136a1.86 1.86 0 0 1-1.857 1.864 1.861 1.861 0 0 1-1.857-1.864 1.86 1.86 0 0 1 1.857-1.864 1.86 1.86 0 0 1 1.857 1.864zM129.429 632.136a1.861 1.861 0 0 1-1.858 1.864 1.861 1.861 0 0 1-1.857-1.864 1.86 1.86 0 0 1 1.857-1.864 1.86 1.86 0 0 1 1.858 1.864zM144.286 632.136a1.861 1.861 0 0 1-1.857 1.864 1.861 1.861 0 0 1-1.858-1.864 1.86 1.86 0 0 1 1.858-1.864 1.86 1.86 0 0 1 1.857 1.864zM159.143 632.136a1.861 1.861 0 0 1-1.857 1.864 1.86 1.86 0 0 1-1.857-1.864 1.86 1.86 0 0 1 1.857-1.864 1.86 1.86 0 0 1 1.857 1.864zM174 632.136a1.86 1.86 0 0 1-1.857 1.864 1.86 1.86 0 0 1-1.857-1.864 1.86 1.86 0 0 1 1.857-1.864 1.86 1.86 0 0 1 1.857 1.864z" fill="currentColor"/></svg>
