<svg width="786.609" height="857.018" viewBox="0 0 208.124 226.753" xml:space="preserve" xmlns="http://www.w3.org/2000/svg"><path style="font-variation-settings:'wght' 700;fill:#5a2ca0;stroke-width:.41614" d="m.954 161.372 56.756 93.976 9.546-.002-17.761-74.456zM124.765 255.34l10.127.024 1.795-.413 20.42-31.61 16.63-3.463 35.061-68.512-.054-1.731-14.003 8.607-26.607 53.71-1.696 1.434-15.206 2.919-1.345 1.248-.93 1.336-20.129 33.687-.859.791-2.04 1.287-1.024.346z" transform="translate(-.675 -28.62)"/><path style="font-variation-settings:'wght' 700;fill:#7137c8;stroke-width:.41614" d="m77.288 158.353-.1-38.22-3.597.07L14.53 80.046l-.155 2.658 13.847 47.746 46.027 25.045z" transform="translate(-.675 -28.62)"/><path style="font-variation-settings:'wght' 700;fill:#8d5fd3;stroke-width:.41614" d="m124.79 255.334-6.082.016 31.465-69.82 44.481-27.271.085-.019-26.413 54.359-1.7 1.436-15.193 2.919-1.539.593-.943 1.342-19.94 33.565-.41.623-.648.44-2.002 1.124-.899.409-.133.245z" transform="translate(-.675 -28.62)"/><path style="font-variation-settings:'wght' 700;fill:#8d5fd3;stroke-width:.418072" d="m85.006 255.344 11.216.003 41.737-162.6v-2.275l-14.796-4.947 3.368 4.254.221 1.187v.693l-.11 1.435-.276 1.286-.552 2.325z" transform="translate(-.675 -28.62)"/><path style="font-variation-settings:'wght' 700;fill:#c6afe9;stroke-width:.41614" d="m86.46 255.372-9.432-.025.137-135.294 25.628-39.604.813-.402h2.01l17.793 5.398 3.494 4.326.026 1.861-.113 1.068-.077 1.265zM121.823 154.254l28.429 31.323.015.024-31.557 69.746-22.682-.01zM173.969 123.59l24.354 23.967.192 4.502-3.72 6.158 13.921-8.582-.109-2.251-26.502-25.723-2.024-.495z" transform="translate(-.675 -28.62)"/><path style="font-variation-settings:'wght' 700;fill:#c6afe9;stroke-width:.41614" d="m73.36 31.88 49.498 53.658 14.581 4.932h.513L82.594 29.398l-2.234-.76-2.62-.018-1.296.402z" transform="translate(-.675 -28.62)"/><path style="font-variation-settings:'wght' 700;fill:#e3d7f4;stroke-width:.41614" d="m14.561 79.935 59.019 40.253 3.57-.055 25.666-39.639.784-.448 2.036.006 17.221 5.49L73.36 31.88zM49.45 180.874 77.06 158.15l-2.848-2.677-45.982-25.02L.675 160.068l.307 1.338zM125.03 143.03l48.934-19.43 24.351 23.95.198 4.508-3.732 6.16-44.497 27.351.007.007-.036.001-28.43-31.32 3.179-11.146z" transform="translate(-.675 -28.62)"/><path style="font-variation-settings:'wght' 700;fill:#f2ecfc;fill-opacity:1;stroke-width:.41614" d="m49.45 180.872.05.02 17.754 74.454h9.775l.081-97.178z" transform="translate(-.675 -28.62)"/></svg>